<?xml version="1.0" encoding="UTF-8" standalone="no"?>
<svg
  version="1.1"
  id="Layer_1"
  x="0px"
  y="0px"
  width="111.811px"
  height="122.88px"
  viewBox="0 0 111.811 122.88"
  enable-background="new 0 0 111.811 122.88"
  xml:space="preserve"
  xmlns="http://www.w3.org/2000/svg"
  xmlns:svg="http://www.w3.org/2000/svg"><g
     id="g1"><path
       fill-rule="evenodd"
       clip-rule="evenodd"
       d="M55.713,0c20.848,13.215,39.682,19.467,55.846,17.989 c2.823,57.098-18.263,90.818-55.63,104.891C19.844,109.708-1.5,77.439,0.083,17.123C19.058,18.116,37.674,14.014,55.713,0L55.713,0 z M55.735,7.055c18.454,11.697,35.126,17.232,49.434,15.923c2.498,50.541-16.166,80.39-49.241,92.846 C23.986,104.165,5.091,75.603,6.493,22.211C23.29,23.091,39.768,19.46,55.735,7.055L55.735,7.055z"
       id="path1" /></g><g
     id="g8"
     transform="matrix(0.29622095,0,0,0.29622095,7.0884359,24.02706)">
	<g
   id="g7">
		<g
   id="Layer_5_34_">
			<g
   id="g6">
				<g
   id="g4">
					<path
   d="m 260.777,217.262 -49.705,49.705 c -0.658,0.658 -0.658,1.738 0,2.398 l 14.825,14.824 c 0.658,0.656 1.738,0.656 2.396,0 l 7.603,-7.604 c 0.657,-0.656 1.735,-0.656 2.395,0.002 l 40.512,40.508 c 20.321,20.324 21.556,19.092 36.378,4.271 14.821,-14.822 16.057,-16.057 -4.269,-36.379 l -40.51,-40.512 c -0.658,-0.656 -0.661,-1.732 -0.003,-2.393 L 278,234.48 c 0.661,-0.66 0.657,-1.736 0,-2.396 l -14.824,-14.828 c -0.663,-0.652 -1.74,-0.652 -2.399,0.006 z m 37.885,73.357 -14.239,14.242 c -1.842,1.84 -4.826,1.84 -6.666,0 -1.841,-1.844 -1.841,-4.826 0,-6.668 l 14.24,-14.24 c 1.842,-1.84 4.825,-1.842 6.666,0 1.84,1.84 1.84,4.825 -0.001,6.666 z m -20.493,-20.492 -14.24,14.242 c -1.84,1.84 -4.824,1.84 -6.665,0 -1.84,-1.84 -1.841,-4.826 -0.001,-6.666 l 14.242,-14.24 c 1.84,-1.842 4.824,-1.842 6.664,-0.002 1.843,1.842 1.843,4.826 0,6.666 z"
   id="path1-5" />
					<g
   id="g3">
						<path
   d="m 205.74,189.598 c -10.196,8.846 -19.131,16.229 -28.599,23.863 -0.467,0.377 -1.216,1.322 -0.272,2.021 16.28,12.842 28.107,21.561 33.939,25.824 2.174,1.594 3.363,2.434 4.822,0.977 4.895,-4.896 14.315,-14.318 19.578,-19.58 1.463,-1.461 1.084,-2.674 -0.316,-4.188 -4.26,-4.602 -14.407,-15.562 -26.838,-28.982 -0.33,-0.359 -1.004,-1.062 -2.314,0.065 z"
   id="path2" />
						<path
   d="m 125.765,170.701 c 10.861,-11.724 20.655,-22.288 31.522,-33.999 0.535,-0.711 0.053,-1.865 -0.364,-2.314 C 148.548,125.372 141.207,117.48 136,111.908 110.686,84.803 45.448,2.472 45.448,2.472 c 0,0 -4.549,-6.025 -6.226,0.736 -2.779,11.213 -7.844,37.059 4.221,72.381 9.189,26.9 43.862,63.051 79.581,94.941 0.529,0.474 1.714,1.046 2.741,0.171 z"
   id="path3" />
					</g>
				</g>
				<g
   id="g5">
					<path
   d="m 293.214,3.209 c -1.677,-6.762 -6.227,-0.736 -6.227,-0.736 0,0 -65.236,82.33 -90.552,109.436 -22.774,24.381 -86.349,93.055 -98.892,106.606 -1.401,1.516 -1.778,2.729 -0.317,4.188 5.262,5.262 14.685,14.684 19.579,19.58 1.458,1.457 2.65,0.617 4.823,-0.977 22.286,-16.305 148.499,-110.501 167.362,-165.719 12.068,-35.319 7.004,-61.165 4.224,-72.378 z"
   id="path4" />
					<path
   d="M 69.266,217.262 54.439,232.09 c -0.658,0.658 -0.659,1.734 0,2.396 l 7.601,7.602 c 0.659,0.658 0.656,1.734 -0.002,2.394 l -40.509,40.511 c -20.324,20.324 -19.09,21.557 -4.268,36.379 14.822,14.821 16.054,16.055 36.378,-4.271 l 40.509,-40.508 c 0.659,-0.658 1.737,-0.658 2.395,-0.002 l 7.602,7.604 c 0.657,0.656 1.737,0.656 2.396,0 l 14.826,-14.824 c 0.659,-0.66 0.658,-1.74 0,-2.398 L 71.661,217.268 c -0.657,-0.664 -1.737,-0.664 -2.395,-0.006 z m -35.491,66.691 c 1.841,-1.842 4.826,-1.84 6.667,0 l 14.241,14.24 c 1.84,1.842 1.84,4.824 0,6.668 -1.841,1.84 -4.826,1.84 -6.666,0 L 33.776,290.619 c -1.84,-1.841 -1.841,-4.826 -0.001,-6.666 z m 20.493,-20.492 c 1.84,-1.84 4.826,-1.84 6.667,0.002 l 14.241,14.24 c 1.841,1.84 1.84,4.826 0,6.666 -1.84,1.84 -4.825,1.84 -6.666,0 L 54.269,270.127 c -1.842,-1.84 -1.843,-4.824 -10e-4,-6.666 z"
   id="path5" />
				</g>
			</g>
		</g>
	</g>
</g></svg>