<?xml version="1.0" encoding="UTF-8" standalone="no"?>
<!DOCTYPE svg PUBLIC "-//W3C//DTD SVG 20010904//EN" "http://www.w3.org/TR/2001/REC-SVG-20010904/DTD/svg10.dtd">
<svg version="1.0" xmlns="http://www.w3.org/2000/svg" width="2000.000000pt" height="2000.000000pt"
    viewBox="0 0 2000.000000 2000.000000" preserveAspectRatio="xMidYMid meet">
    <g transform="translate(0.000000,2000.000000) scale(0.100000,-0.100000)" fill="#000000"
        stroke="none">
        <path
            d="M12120 18303 c-171 -12 -375 -67 -533 -142 -192 -92 -401 -265 -532 -441 -119 -159 -217 -376 -261 -580 -27 -121 -27 -449 -1 -570 85 -391 301 -713 624 -927 193 -127 397 -204 628 -234 121 -16 353 -6 472 20 608 133 1062 624 1144 1238 15 112 6 372 -16 473 -24 112 -79 268 -125 361 -229 454 -666 751 -1175 799 -107 10 -131 10 -225 3z" />
        <path
            d="M9675 16044 c-219 -33 -410 -182 -527 -410 -106 -206 -127 -331 -128 -764 -1 -1285 331 -2434 957 -3309 141 -196 287 -364 513 -591 564 -566 1120 -977 1800 -1328 258 -134 300 -176 457 -467 163 -301 721 -1428 1548 -3130 971 -1996 1487 -3033 1582 -3180 149 -227 334 -405 523 -500 82 -41 188 -75 237 -75 41 0 1170 276 1185 289 10 9 108 495 108 533 0 24 -3 28 -22 23 -13 -3 -295 -50 -628 -105 -433 -72 -617 -107 -647 -121 -37 -19 -52 -20 -130 -14 -114 10 -153 26 -210 89 -74 81 -704 1341 -1908 3811 -905 1858 -1080 2215 -1502 3065 -234 470 -439 887 -455 925 -98 225 -174 519 -215 830 -15 116 -18 207 -17 535 0 430 7 522 79 1132 102 855 123 1094 106 1199 -50 303 -307 523 -611 523 -186 0 -330 -70 -442 -214 -78 -101 -191 -340 -238 -503 -106 -368 -147 -712 -137 -1147 13 -579 117 -1112 351 -1795 81 -236 81 -236 -33 -70 -375 549 -601 1218 -781 2310 -55 330 -62 464 -49 870 23 681 -14 956 -169 1260 -81 159 -223 276 -382 313 -55 13 -174 22 -215 16z m8105 -13139 l0 -75 -135 0 -135 0 0 75 0 75 135 0 135 0 0 -75z m-330 -60 l0 -75 -135 0 -135 0 0 75 0 75 135 0 135 0 0 -75z m-330 -70 l0 -75 -135 0 -135 0 0 75 0 75 135 0 135 0 0 -75z m-340 -50 l0 -75 -135 0 -135 0 0 75 0 75 135 0 135 0 0 -75z m960 -30 l0 -75 -135 0 -135 0 0 75 0 75 135 0 135 0 0 -75z m-330 -70 l0 -75 -135 0 -135 0 0 75 0 75 135 0 135 0 0 -75z m-320 -70 l0 -75 -135 0 -135 0 0 75 0 75 135 0 135 0 0 -75z m-330 -70 l0 -75 -135 0 -135 0 0 75 0 75 135 0 135 0 0 -75z" />
        <path
            d="M7347 12349 c-371 -54 -751 -417 -871 -832 -68 -235 -71 -665 -9 -1512 23 -314 27 -435 27 -800 1 -471 -8 -587 -64 -866 -32 -161 -55 -213 -121 -279 -134 -134 -311 -164 -769 -132 -556 39 -913 130 -1855 472 -341 124 -753 262 -768 257 -5 -1 24 -45 64 -97 241 -317 563 -632 913 -893 563 -420 1274 -756 1990 -941 548 -142 1115 -4 1486 363 97 95 165 189 269 364 287 489 470 1135 576 2032 15 127 29 237 32 245 5 18 99 -157 316 -590 227 -452 338 -718 428 -1020 134 -453 162 -872 89 -1300 -180 -1051 -670 -2033 -1697 -3404 -91 -120 -160 -216 -154 -215 32 12 512 393 751 597 446 381 1000 929 1291 1278 508 608 893 1348 1134 2181 56 193 70 338 62 638 -7 228 -23 389 -63 615 -68 389 -133 631 -470 1770 -57 193 -180 555 -236 695 -189 471 -422 789 -723 990 -110 74 -171 102 -267 127 -72 18 -102 20 -223 15 -148 -6 -234 -22 -481 -91 l-129 -37 -160 165 c-198 204 -235 224 -368 205z" />
        <path
            d="M17240 2024 c-109 -23 -205 -77 -290 -164 -87 -87 -132 -166 -160 -276 -38 -147 -18 -314 52 -447 46 -87 174 -213 258 -254 92 -45 174 -63 280 -63 111 0 161 11 265 60 218 103 345 305 345 550 0 174 -55 305 -180 431 -150 150 -356 210 -570 163z" />
    </g>
</svg>