<?xml version="1.0" encoding="UTF-8" standalone="no"?>
<svg
   xml:space="preserve"
   id="Layer_1"
   x="0"
   y="0"
   version="1.1"
   viewBox="-795 921.3 2408 2408"
   xmlns="http://www.w3.org/2000/svg"
   xmlns:svg="http://www.w3.org/2000/svg"><defs
   id="defs42" />
  <style
   id="style1">
    .st0{display:none}.st1{display:inline}.st3{stroke:#000;stroke-width:3;stroke-miterlimit:10}.st4{fill:#fff}
  </style>
  <g
   id="Soccer_Ball">
    <g
   id="XMLID_3_">
      <path
   d="M1439.5 1785.5c13.9 68.3 21.1 139 21.1 211.4 0 104-15 204.4-42.9 299.3 12.6-48.4-15.7-235.6-15.7-235.6s42.9-243.4 37.5-275.1z"
   id="path1" />
      <path
   d="M1421.6 1790.4c26 129 27.4 265.2 3.6 394.4-6.6 35.9-15.1 71.4-25.4 106.4 11.9 3.3 23.9 6.6 35.8 9.9 3.8-14.9 4-31 3.9-46.3-.1-19.9-1.4-39.9-3.1-59.7-3.2-38.6-7.8-77.1-13.1-115.4-1.1-8-2.2-16.1-3.4-24.1v9.9c5-28.4 9.7-56.8 14.3-85.2 8-49.3 15.8-98.8 21.3-148.4 1.9-16.8 4.5-34.4 1.8-51.3-1.6-9.9-13.9-15.4-22.8-13-10.4 2.9-14.4 12.8-12.9 22.8.1.4-.5-6.2-.4-2.4 0 1.1.1 2.1.1 3.2.1 2.5 0 5.1-.1 7.6-.3 6.8-.8 13.5-1.5 20.3-.8 8.9-1.9 17.7-2.9 26.6l-1.8 14.4c-.2 1.2-.3 2.4-.5 3.6l-.3 2.4c0 .1.6-4 .3-1.9-.4 2.7-.7 5.3-1.1 8-5.9 42.7-12.7 85.4-19.8 127.9-2.4 14.5-4.8 28.9-7.3 43.3-1.3 7.7-3.1 15.1-2 22.9.5 3.7 1.1 7.3 1.6 11 .4 3.1.9 6.2 1.3 9.2.3 1.9.5 3.8.8 5.7.4 3.2-.6-4.5-.2-1.2.2 1.1.3 2.3.5 3.4 2.8 21 5.3 42 7.5 63 4.5 42.3 9.5 85.9 5.3 128.4-.3 3.1.8-4.6.2-1.7-.2.9-.3 1.8-.4 2.6-.3 1.5-.6 3-1 4.4-2.4 9.4 3.1 20.6 13 22.8 9.9 2.3 19.9-3 22.8-13 38.3-130.7 51.6-268.8 38.9-404.4-3.7-39-9.4-77.8-17.1-116.1-2-9.8-13.7-15.5-22.8-13-10.3 3-15 13.1-13.1 23z"
   id="path2" />
      <path
   d="M909.5 2800.6s68.1 37.4 239.4-53.8c-160 159.2-370.7 267.6-605.7 298.7v-49.4c-.1.1 277.2-107.6 366.3-195.5z"
   id="path3" />
      <path
   d="M900.1 2816.7c12.7 6.9 28.4 8.8 42.5 9.8 37.9 2.6 76.9-6.4 112.6-18.3 35.6-11.9 69.9-27.6 103-45.2-7.5-9.7-15-19.4-22.5-29.2-62.6 62.2-129 113.7-204.9 158.6-77 45.5-155.3 79.3-241.1 103.8-24 6.9-48.3 12.9-72.8 18.1-12.7 2.7-25.4 5.1-38.1 7.3-6.1 1-12.1 2-18.2 3l-10.2 1.5c-1.4.2-2.7.4-4.1.6-.5.1-5.9.8-3.2.5l18.6 18.6v-49.4c-4.5 6-9.1 11.9-13.6 17.9 34.9-13.6 69.4-28.4 103.6-43.6 63.7-28.3 126.9-58.5 186.5-94.7 29.7-18 59.5-37.7 84.4-62.1 7.2-7 7-19.2 0-26.3-7.2-7.2-19.1-7-26.3 0-4.7 4.6-9.6 9-14.7 13.3-2.4 2-4.9 4-7.3 6-1.4 1.1-4.3 3.3-1.1.8-1.7 1.3-3.3 2.5-5 3.8-12.6 9.4-25.7 18.1-39.1 26.4-29.8 18.6-60.6 35.4-91.9 51.3-30.7 15.6-61.9 30.4-93.4 44.5-13.6 6.1-27.2 12.1-40.9 18-3 1.3-5.9 2.6-8.9 3.8-1.5.6-3 1.3-4.5 1.9-.7.3-1.3.6-2 .8-3 1.3 3.2-1.3 1-.4-5.2 2.2-10.4 4.4-15.6 6.5-11.6 4.8-23.2 9.6-35 14.1-7.7 3-13.6 9.1-13.6 17.9v49.4c0 9.1 8.6 19.9 18.6 18.6 92.1-12.3 182.2-35.7 268.1-71.1 83.5-34.5 162.6-78.9 235-133.2 40.8-30.6 79.6-63.9 115.8-99.9 15.3-15.1-4.1-38.9-22.5-29.2-47.8 25.4-96.4 46.8-150.9 56l-6 .9c-2.1.3-3.7 1.7.3 0-.8.3-2 .2-2.8.3-4 .5-8.1.9-12.2 1.1-6.9.5-13.8.6-20.7.3-2.7-.1-5.5-.3-8.2-.5-1.1-.1-2.3-.2-3.4-.3-5.1-.5 4.4.8.6.1-3.9-.7-7.7-1.3-11.5-2.3-2.6-.7-5-1.6-7.6-2.5-2.7-.9 5.9 2.6 2.3 1l-.6-.3c-8.8-4.8-20.2-2.2-25.4 6.7-4.7 8.3-1.9 20.4 6.9 25.3z"
   id="path4" />
      <path
   d="M923.3 1800.6s227.3 294.6 225.6 346.6c0 0-58.7 215.4-241.9 388.6 0 0-326.7-27.2-398.5-94.1l2.5-464.3c69.3 8.5 412.3-176.8 412.3-176.8z"
   id="path5" />
      <path
   d="M907.3 1809.9c20.8 27 41.2 54.2 61.3 81.7 38.4 52.2 76.3 104.9 111.4 159.4 14.4 22.3 28.5 45 40.4 68.8 1.1 2.3 2.2 4.5 3.3 6.8.5 1 .9 2 1.4 3.1 1.3 2.9 1.2 3.1 0-.2 1.4 3.8 3 7.4 4.1 11.3.4 1.5.8 2.9 1.1 4.4.1.7.2 1.4.4 2 .7 2.8-.3-6.1-.3-2.3 0 5.2 1.8-5.5.4-1.7-4.7 13.1-8.5 26.5-13.3 39.6-2.2 5.8-4.4 11.6-6.7 17.3l-3.9 9.6c-.7 1.6-1.3 3.2-2 4.7-.2.4-1.7 4-.4 1 1.2-2.9-.5 1-.7 1.6-6.7 15.8-13.9 31.3-21.5 46.7-19 38.4-40.4 75.7-64.2 111.3-28.7 42.9-58.6 80.6-94.8 118.4-9.5 10-19.3 19.7-29.3 29.1 4.4-1.8 8.8-3.6 13.1-5.4-11-.9-22-2-33-3.2-12-1.3-23.9-2.6-35.8-4-7.1-.9-14.3-1.7-21.4-2.7l-11.1-1.5c-1.1-.1-3.6-.4 1.3.2-1-.1-2-.3-3-.4-2.2-.3-4.5-.6-6.7-.9-68.8-9.6-138.3-20.9-204.6-42.1-8.2-2.6-16.3-5.4-24.3-8.5-1.7-.7-3.4-1.3-5.1-2-1.4-.6-8.5-2.8-2.5-1-3.5-1.1-7-3.1-10.3-4.7-6-2.9-11.9-6-17.6-9.6-2.6-1.6-5.1-3.4-7.6-5.2s1.5.2 1.6 1.2c0-.2-1.7-1.3-1.8-1.5-1.1-1-2.3-1.9-3.4-2.9 1.8 4.4 3.6 8.8 5.4 13.1.1-15.4.2-30.8.2-46.2l.6-111c.2-44.6.5-89.1.7-133.7l.6-116.1c.1-18.7 1.3-37.8.3-56.4v-.8l-18.6 18.6c10.7 1.2 22-1.1 32.4-3.3 13.4-2.9 26.6-7.1 39.6-11.6 36.2-12.5 71.4-27.7 106.3-43.4 67.8-30.5 134.4-63.8 200.3-98.2 14.4-7.5 28.9-15.1 43.2-22.8 8.8-4.8 11.6-17 6.7-25.4-5.2-8.9-16.5-11.4-25.4-6.7-39.4 21.3-79.3 41.8-119.4 61.8-35.9 17.9-72 35.5-108.4 52.2-18.1 8.3-36.2 16.3-54.5 24.1 5.2-2.2-1.4.6-2.4 1-2.3.9-4.5 1.9-6.8 2.8-4.4 1.8-8.8 3.6-13.3 5.4-8 3.2-16.1 6.3-24.2 9.3-15.1 5.5-30.5 10.7-46.1 14.6-3.2.8-6.4 1.5-9.7 2.1-1.4.3-2.7.5-4.1.7-.7.1-1.3.2-2 .3-4.1.7 4.7-.4 1.8-.2-4.6.3-9.1.8-13.8.3-10-1.2-18.5 9.4-18.6 18.6L492 2083c-.4 68.7-.7 137.4-1.1 206.1-.3 48.3-.5 96.6-.8 144.9 0 4.1-.5 8.7.6 12.6 2.4 8.8 12.5 15 19.6 19.8 5.5 3.7 11.2 7 17.1 10 31.4 15.9 65.8 26 99.8 34.5 72.9 18.2 147.7 28.9 222.3 37.5 18.4 2.1 36.9 4.4 55.4 5.7 3.4.2 6 0 9.5-1.4 7.6-3.2 14.3-11.7 20.1-17.6 5.6-5.6 11.2-11.2 16.6-17 20.7-21.7 40.2-44.5 58.6-68.2 57.1-73.7 103.5-155.2 137.8-241.9 6.9-17.6 13.5-35.4 18.8-53.5 4.9-16.7-5.2-36-12.2-50.6-13.1-27-29.4-52.6-45.7-77.8-20.2-31.1-41.3-61.6-62.8-91.8-32.7-45.9-66.2-91.2-100.4-135.9-1.8-2.4-3.7-4.8-5.5-7.2-6.1-7.9-16-12.2-25.4-6.7-8.2 4.6-13.2 17.5-7 25.4z"
   id="path6" />
      <path
   d="M144.6 2906.9v.1c-143.6 12.4-349-64.4-349-64.4-220.3-190.6-235.2-334.2-235.2-334.2 49.6-57.7 175.8-116.9 175.8-116.9 49.5 88.5 371.3 240.7 371.3 240.7-2.5 48.9 35.9 268.1 37.1 274.7z"
   id="path7" />
      <path
   d="M126.7 2911.8c6-7.7 11.9-15.6 17.9-23.4-29.4 2.5-59.1 1.3-88.4-1.6-3.9-.4-7.7-.8-11.6-1.3-1.8-.2-3.6-.4-5.3-.6l-2.7-.3c-.3 0-3.9-.5-2-.3 2 .3-.9-.1-1.1-.2-.9-.1-1.8-.2-2.7-.4-2.1-.3-4.1-.6-6.2-.9-3.8-.6-7.7-1.2-11.5-1.8-15.1-2.5-30.2-5.4-45.2-8.6-47.5-10.1-94.4-23.1-140.4-38.4-9-3-18.1-6-27-9.4 2.7 1.6 5.5 3.2 8.2 4.8-37.6-32.6-73.4-67.2-106.2-104.7-7.1-8.1-14-16.2-20.7-24.5-2.9-3.6-5.8-7.2-8.7-10.9-.7-.9-4.4-5.6-2.3-2.9-1.7-2.2-3.3-4.4-5-6.6-10.3-13.8-20.2-27.9-29.5-42.4-14.4-22.6-27.5-46.1-38.4-70.6-.5-1.1-1-2.3-1.5-3.4-2.1-4.7.9 2.2-.1-.2-.9-2.3-1.9-4.5-2.8-6.8-1.7-4.3-3.3-8.5-4.8-12.9-2.3-6.6-4.5-13.4-6.3-20.2-1.3-4.8-2.5-9.6-3.4-14.5-.2-1.3-.4-2.6-.7-3.9-.5-2.8.8 6.5.5 3.5-1.8 4.4-3.6 8.8-5.4 13.1 10.8-12.5 23.3-23.4 36.3-33.5-3 2.3 2-1.5 2.7-2 1.8-1.3 3.5-2.6 5.3-3.9 3.6-2.6 7.2-5.2 10.8-7.7 7.5-5.2 15.2-10.2 22.9-15.1 25.2-15.9 51.4-30.5 78-44 5.3-2.7 10.6-5.4 16-7.9-8.5-2.2-16.9-4.4-25.4-6.7 13.8 24.4 36.6 43.8 58.3 61 29.9 23.6 61.7 44.8 94.1 64.7 60 36.9 122.2 70.3 185.2 101.8 13.4 6.7 26.8 13.4 40.4 19.8-3.1-5.3-6.1-10.7-9.2-16-.7 15.1 1.1 30.5 2.7 45.5 2.5 23.5 5.6 47 9 70.4 6.3 44.2 13.3 88.3 20.8 132.3 1.8 10.8 3.6 21.2 5.4 31.6 1.7 9.9 13.8 15.4 22.8 13 10.4-2.9 14.7-12.9 13-22.8-4.8-27.2-9.3-54.4-13.7-81.7-3.8-23.6-7.5-47.3-10.9-70.9-.9-5.9-1.7-11.9-2.5-17.8-.4-2.7-.7-5.4-1.1-8.1-.3-2.1-.6-4.8-.1-1.1-.2-1.5-.4-3.1-.6-4.6-1.4-11-2.8-22-4.1-33.1-1.9-17.3-4.2-35-3.4-52.4.3-6-3.6-13.4-9.2-16-37.5-17.8-74.5-36.8-111.1-56.4-66.5-35.5-133.1-72.9-193.4-118.3-1.8-1.3-3.5-2.7-5.3-4-2.1-1.6 3.6 2.9.4.3-.9-.7-1.9-1.5-2.8-2.2-3.6-2.9-7.2-5.8-10.7-8.7-6.4-5.3-12.6-10.9-18.6-16.6-5.2-5.1-10.3-10.3-14.9-15.9-.5-.5-.9-1.1-1.3-1.6-2.5-3-.6.6.6.8-.7-.1-2.4-3.3-2.8-3.9-1.7-2.4-3.3-4.9-4.7-7.5-5.3-9.3-16.4-10.9-25.4-6.7-20.7 9.7-40.9 20.6-60.7 31.9-37 21.1-74 44.3-105 73.6-7.7 7.3-18.8 16.4-19.2 27.5-.1 2.1.5 4.3.9 6.4.5 3.5 1.2 7 2 10.4 3.7 16.4 9.4 32.3 15.9 47.8 29 69.6 73.8 131.6 124 187.3 18.3 20.4 37.6 39.9 57.5 58.8 11.1 10.5 22.4 20.8 33.9 30.9 5.1 4.5 9.9 8.7 16.3 11 20.1 7.4 40.5 13.9 61 20.1 39.3 11.9 79.1 22.1 119.3 30.1 46.1 9.1 93.3 15.8 140.4 15.6 10.6 0 21.1-.5 31.6-1.3 12.9-1.1 20-10.9 17.9-23.5v-.1c-1.6-9.9-13.9-15.4-22.8-13-10.7 2.8-14.9 12.8-13.2 22.7z"
   id="path8" />
      <path
   d="M144.6 1312.9s-37.1 344.1-27.2 401c0 0-366.4 187-381.2 209.2 0 0-174.2-142.3-199.7-267.3 0 0 95.8-303.3 269.2-394.9-.1 0 202.8-2.4 338.9 52z"
   id="path9" />
      <path
   d="M126 1312.9c-4.3 40.1-8.3 80.3-12 120.4-6.5 69.5-12.8 139.2-15.8 209-1.1 25.2-2.9 51.5 1.3 76.5 2.8-7 5.7-14 8.5-21-42.1 21.5-84.1 43.3-126.1 65.2-68.3 35.7-136.7 71.4-203.4 110-12.1 7-24.3 14.1-36 21.8-8.2 5.3-16.8 10.8-22.4 18.9 9.7-1.3 19.4-2.5 29.2-3.8-20.8-17-40.4-35.6-59.4-54.5-18.7-18.6-36.6-37.9-53.6-58.1-4.5-5.4-8.9-10.8-13.2-16.2-1.2-1.5-2.3-3-3.5-4.5 1.9 2.5-.4-.5-1.1-1.4-2.3-3-4.6-6.1-6.8-9.1-8.4-11.6-16.5-23.4-23.9-35.7-8-13.2-15.1-26.8-21.4-40.9-.1-.3-1.1-2.7-.3-.6.9 2.1-.4-.9-.5-1.3-.7-1.9-1.5-3.7-2.2-5.6-1.2-3.2-2.4-6.5-3.4-9.7-2.3-7-4.2-14.2-5.7-21.4v9.9c3.2-10.2 6.9-20.3 10.6-30.3 4.3-11.5 8.7-22.8 13.3-34.2 1.2-3.1 2.5-6.1 3.8-9.2.4-1 .8-2 1.3-3-.1.3-1.8 4.3-.6 1.4.9-2.1 1.8-4.1 2.6-6.2 3.2-7.4 6.5-14.8 9.8-22.2 15.5-34 32.6-67.4 51.6-99.6 10.4-17.5 21.3-34.7 33-51.4 2.7-3.9 5.5-7.8 8.3-11.6 1.5-2 3-4 4.5-6.1l2.7-3.6c.3-.4 3.4-4.5.8-1 6.3-8.1 12.8-16.1 19.5-23.8 14.8-17.1 30.7-33.3 47.9-47.9 2-1.7 4-3.4 6.1-5.1 1.1-.9 2.2-1.8 3.4-2.7.8-.6 4.3-3.3.8-.6 4.3-3.3 8.7-6.5 13.2-9.6 9-6.2 18.4-11.9 28.1-17.1-3.1.8-6.2 1.7-9.4 2.5 25.3-.3 50.7.8 75.9 2.4 26.1 1.6 52.1 3.8 78 7 3.4.4 6.9.8 10.3 1.3 1.7.2 3.5.4 5.2.7-4.1-.6 1.7.2 2 .3 7.1 1 14.2 2 21.2 3.2 15 2.4 29.9 5.1 44.8 8.3 32.8 7 65.3 15.9 96.5 28.3 9 3.6 20.8-3.9 22.8-13 2.4-10.7-3.3-19-13-22.8-52.5-20.9-108.5-32.3-164.2-40-46.9-6.5-94.2-10.5-141.5-12.1-11.4-.4-22.8-.6-34.2-.6-15.3 0-29.8 11.6-42 20-39.9 27.6-73.1 63-102.5 101.3-52.2 68.1-91.4 145.7-123.6 225-7.8 19.2-15.2 38.6-21.7 58.3-4 12.2 1.2 25.5 5.2 37.2 8.1 24 19.6 46.8 32.9 68.3 26.5 42.9 59.6 81.8 94.6 117.9 21.3 22 43.6 43.2 67.1 62.9 1.2 1 2.3 2 3.5 2.9 9.7 7.9 21.9 6.8 29.2-3.8-1.2 1.8-4 4.1-1 1.7 1.8-1.5 6.2-4.1-.2 0 3.2-2 6.2-4.5 9.4-6.6 9.8-6.4 19.8-12.4 29.9-18.3 30.3-17.7 61.1-34.5 91.9-51.2 66.1-35.7 132.8-70.5 199.6-105l45-23.1c7.8-4 9.9-13.1 8.5-21-.9-5.4.4 5 0-.1-.2-2.1-.4-4.1-.5-6.2-.3-4.6-.4-9.2-.5-13.8-.2-12.5.2-25 .6-37.5 1.2-33.1 3.5-66.2 6-99.3 5-65.5 11.1-131 17.8-196.3 1.5-14.3 2.9-28.6 4.5-42.9 1-9.7-9.3-19-18.6-18.6-10.8.6-17.3 8.3-18.5 18.6z"
   id="path10" />
      <path
   d="M1169.4 1335.2c-86.6-7.4-230.2 61.9-230.2 61.9-52-108.9-396.6-250-396.6-250s18.7-172.9 40.5-192.9c209.9 36.1 398.7 134 546.9 274.3 18.3 16.9 39.4 106.7 39.4 106.7z"
   id="path11" />
      <path
   d="M1169.4 1316.6c-40.3-3.3-81.8 6.8-120.1 18.3-34.3 10.3-67.7 23.2-100.5 37.5-6.4 2.8-12.7 5.6-19 8.6 8.5 2.2 16.9 4.4 25.4 6.7-13.5-27.9-38.1-50.5-61.8-69.8-31.7-25.7-65.9-47.9-101-68.5-63.6-37.4-130.1-69.9-197.5-99.9-15.7-7-31.4-13.8-47.3-20.4 4.5 6 9.1 11.9 13.6 17.9.6-5.7 1.3-11.4 2-17 .7-6 1.5-12.1 2.3-18.1.2-1.8.5-3.5.7-5.3.5-4-.6 4.6-.1.6.1-.7.2-1.5.3-2.2l1.8-12.9c4.8-33.4 9.9-67 18.7-99.6 1.9-6.9 4.1-13.7 6.6-20.4.5-1.5 1.5-1.6-1 2.3.4-.7.7-1.6 1-2.3.5-1.1 1.1-2.1 1.7-3.2.4-.8 1.7-2 1.8-2.9-.7 3.2-3.4 3.8-.7 1.3-6 1.6-12 3.2-18.1 4.8 40.3 7 80.3 16.2 119.5 27.8 19.3 5.7 38.3 11.9 57.2 18.7 9.6 3.4 19.1 7 28.5 10.7 4.4 1.7 8.8 3.5 13.2 5.3 2.5 1 5 2.1 7.5 3.1 2 .8 2 .8 4.9 2.1 73.3 31.3 143 71.1 207.4 118 18 13.1 32.3 24.3 49.8 38.9 17.4 14.5 34.3 29.5 50.7 45v-26.3c-7 7-7.3 19.3 0 26.3.7.7 1.3 1.5 2 2.1 2.1 1.9-2.5-3.8-.9-1.2 1.1 1.9 2.4 3.7 3.5 5.6 1.2 2.2 2.4 4.5 3.5 6.8.5 1.1 1 2.2 1.5 3.2.3.7.7 1.5 1 2.2-1.1-2.5-1.2-2.8-.4-.9 4.5 11.5 8.5 23.1 12.1 34.8 4.6 15.1 8.8 30.3 12.5 45.7 2.3 9.8 13.4 15.6 22.8 13 10-2.7 15.3-13 13-22.8-3.8-16.2-8.3-32.4-13.3-48.3-4.1-13.2-8.7-26.3-14.1-39-4.2-9.8-9-20.1-16.7-27.5v26.3c6.9-6.9 7.3-19.4 0-26.3-50.5-47.7-105.6-90.7-164.2-128-59.2-37.6-122.1-69.2-187.5-94.6-65.5-25.5-134.3-45.9-203.6-56.5-23.6-3.6-31.4 26.2-36.3 43.8-5.7 20.2-9.5 40.9-13 61.5-3.8 22.2-7 44.4-9.9 66.7-1.6 12.3-3.6 24.6-4.5 37 0 .6-.1 1.3-.2 1.9-.9 8.7 6.6 15 13.6 17.9.8.3 1.6.7 2.4 1 1 .4 1.9.8 2.9 1.2.6.2 1.1.5 1.7.7 3 1.3-5.6-2.4-1.7-.7 8.6 3.6 17.1 7.3 25.6 11.1 28.2 12.4 56.2 25.4 83.9 38.9 71.4 34.7 143.1 72.3 206.4 120.5.8.6 1.7 1.3 2.5 1.9-4.3-3.3.3.2 1.1.9 1.9 1.5 3.8 3 5.7 4.6 3.7 3 7.3 6 10.9 9.1 6.8 5.9 13.4 12.1 19.6 18.6 2.9 3.1 5.8 6.2 8.6 9.4 1.3 1.5 2.5 3 3.7 4.5.4.5 2.4 3 .3.4-2.2-2.8.4.6.8 1.1 4.3 5.8 8.1 11.9 11.2 18.3 4.6 9.5 17 10.7 25.4 6.7 4.8-2.3 9.7-4.5 14.6-6.7 2.4-1.1 4.9-2.2 7.3-3.2 1.4-.6 2.8-1.2 4.1-1.8.6-.3 1.3-.5 1.9-.8 3.4-1.5-3.7 1.5-.4.2 7.3-3 14.6-6 22-8.9 36.4-14.2 73.9-26.7 112.3-34 5.2-1 10.4-1.8 15.7-2.6 3.6-.5.4-.1-.3 0 1.5-.2 3.1-.4 4.6-.6 2.8-.3 5.5-.6 8.3-.8 10.2-.8 20.4-1 30.6-.2 9.7.8 19-9.1 18.6-18.6-.6-10.8-8.3-17.8-18.7-18.7z"
   id="path12" />
      <path
   d="M1298.1 1468.6c45.7 77.7 80.5 158.4 105 245.1 7.1 25.1 13.2 50.4 18.4 75.9 2 9.8 13.6 15.5 22.8 13 10.2-2.8 15-13 13-22.8-18.6-90.8-49.1-178.9-90.3-261.9-11.5-23.1-23.8-45.8-36.9-68-5.1-8.6-16.7-11.7-25.4-6.7-8.6 5.1-11.7 16.8-6.6 25.4z"
   id="path13" />
      <path
   d="M-622 1821c26.7-153.7 87.4-299.9 177.8-427.1 89.5-125.8 207.5-231 342.3-306C46.9 1005 215.3 960.3 385.5 957.6c175.2-2.8 349.9 38.6 504.6 121 148.9 79.3 278 194.9 372.8 334.6 12.3 18.1 23.9 36.6 35.1 55.4 12.2 20.5 44.3 1.9 32.1-18.7-90.3-152.1-217.5-281.4-368.7-373.4C809.5 984 635.5 930.9 458.1 921.7c-178.8-9.2-358.5 26.7-520 103.8-145.9 69.7-276 173.2-376.7 299.7-99.5 125.1-171.3 271.3-207.3 427.1-4.5 19.5-8.4 39.1-11.8 58.8-1.7 9.9 2.6 20 13 22.8 8.8 2.5 21-3 22.7-12.9z"
   id="path14" />
      <path
   d="M-573.3 2355.4c-48.5-133.2-69.4-272.8-62-414.2 2.1-40.8 6.5-80.4 13.3-120.2 1.6-9.5-2.5-20.5-13-22.8-9-2-21.1 2.7-22.8 13-25.1 146.6-20.6 297.7 14.7 442.4 9.2 37.9 20.6 75.2 34 111.8 3.4 9.4 12.6 15.8 22.8 13 9.1-2.6 16.5-13.5 13-23z"
   id="path15" />
      <path
   d="M1135.7 2733.7c-102.7 101.9-226.2 182.7-361.5 234.2-143.6 54.7-298.2 76.8-451.4 65.3-128-9.6-254.5-43.3-370.1-99.1-113.4-54.7-216.3-129.7-303.1-220.8-86.8-91.1-157.2-198.2-205.9-314.3-6-14.3-11.6-28.8-17-43.4-3.5-9.4-12.6-15.8-22.8-13-9.1 2.5-16.4 13.4-13 22.8 45.6 124 113.3 238.8 200 338.4 84.9 97.6 187.9 180 301.9 241.3 118.2 63.6 247.5 104.1 380.6 120.3 154.5 18.8 313.4 3.7 461.4-44.4 142.9-46.4 275.1-122.9 386.9-223.2 13.7-12.3 27.1-25 40.2-38 17.1-16.7-9.2-42.9-26.2-26.1z"
   id="path16" />
      <path
   d="M1421.6 1790.4c28.3 140.4 27.3 288.2-3.2 428.1-27.8 127.2-77.8 245.2-149.9 353.6-38.9 58.5-82.4 111.4-132.8 161.6-7.1 7.1-7.1 19.2 0 26.3s19.1 7.1 26.3 0c92-91.7 167.6-199.9 221.2-318.2 58.2-128.8 90.8-268.1 95.5-409.4 2.8-84.4-4.5-169.1-21.2-251.9-2-9.8-13.7-15.5-22.8-13-10.3 2.9-15 13-13.1 22.9z"
   id="path17" />
      <path
   d="M-212.3 1118.4c-7 48.1-10.5 99.7 0 147.5 1.7 7.8 10.1 13.7 17.9 13.6 25.3-.3 50.7.8 75.9 2.4 26.1 1.6 52.1 3.8 78 7 3.4.4 6.9.8 10.3 1.3 1.7.2 3.5.4 5.2.7-4.1-.6 1.7.2 2 .3 7.1 1 14.2 2 21.2 3.2 15 2.4 29.9 5.1 44.8 8.3 32.8 7 65.3 15.9 96.5 28.3-4.5-6-9.1-11.9-13.6-17.9-4.3 40.1-8.3 80.3-12 120.4-6.5 69.5-12.8 139.2-15.8 209-1.1 25.2-2.9 51.5 1.3 76.5 2.8-7 5.7-14 8.5-21-42.1 21.5-84.1 43.3-126.1 65.2-68.3 35.7-136.7 71.4-203.4 110-12.1 7-24.3 14.1-36 21.8-8.2 5.3-16.8 10.8-22.4 18.9 9.7-1.3 19.4-2.5 29.2-3.8-20.8-17-40.4-35.6-59.4-54.5-18.7-18.6-36.6-37.9-53.6-58.1-4.5-5.4-8.9-10.8-13.2-16.2-1.2-1.5-2.3-3-3.5-4.5 1.9 2.5-.4-.5-1.1-1.4-2.3-3-4.6-6.1-6.8-9.1-8.4-11.6-16.5-23.4-23.9-35.7-8-13.2-15.1-26.8-21.4-40.9-.1-.3-1.1-2.7-.3-.6.9 2.1-.4-.9-.5-1.3-.7-1.9-1.5-3.7-2.2-5.6-1.2-3.2-2.4-6.5-3.4-9.7-2.3-7-4.2-14.2-5.7-21.4v9.9c3.2-10.2 6.9-20.3 10.6-30.3 4.3-11.5 8.7-22.8 13.3-34.2 1.2-3.1 2.5-6.1 3.8-9.2.4-1 .8-2 1.3-3-.1.3-1.8 4.3-.6 1.4.9-2.1 1.8-4.1 2.6-6.2 3.2-7.4 6.5-14.8 9.8-22.2 15.5-34 32.6-67.4 51.6-99.6 10.4-17.5 21.3-34.7 33-51.4 2.7-3.9 5.5-7.8 8.3-11.6 1.5-2 3-4 4.5-6.1l2.7-3.6c.3-.4 3.4-4.5.8-1 6.3-8.1 12.8-16.1 19.5-23.8 14.8-17.1 30.7-33.3 47.9-47.9 2-1.7 4-3.4 6.1-5.1 1.1-.9 2.2-1.8 3.4-2.7.8-.6 4.3-3.3.8-.6 4.3-3.3 8.7-6.5 13.2-9.6 9-6.2 18.4-11.9 28.1-17.1 8.8-4.7 11.6-17 6.7-25.4-5.2-9-16.5-11.4-25.4-6.7-61.3 32.6-109.2 86.3-148.5 142.5-36.4 51.9-66.2 108.6-91.7 166.7-9.4 21.5-18.3 43.2-26.5 65.2-3.7 9.9-7.8 20-10.6 30.2-3 10.8 2.8 24.9 6.3 35.2 6 17.7 13.9 34.8 23 51.1 18.4 33.1 41.5 63.7 66 92.4 32.5 38.1 68.4 74 106.9 106.2.6.5 1.3 1.1 1.9 1.6 9.7 7.9 21.9 6.8 29.2-3.8-1.2 1.8-4 4.1-1 1.7 1.8-1.5 6.2-4.1-.2 0 3.2-2 6.2-4.5 9.4-6.6 9.8-6.4 19.8-12.4 29.9-18.3 30.3-17.7 61.1-34.5 91.9-51.2 66.1-35.7 132.8-70.5 199.6-105l45-23.1c7.8-4 9.9-13.1 8.5-21-.9-5.4.4 5 0-.1-.2-2.1-.4-4.1-.5-6.2-.3-4.6-.4-9.2-.5-13.8-.2-12.5.2-25 .6-37.5 1.2-33.1 3.5-66.2 6-99.3 5-65.5 11.1-131 17.8-196.3 1.5-14.3 2.9-28.6 4.5-42.9.9-8.7-6.6-15.1-13.6-17.9-56.8-22.6-117.5-34-177.9-41.8-46.3-6-92.9-9.5-139.5-10.6-8.8-.2-17.7-.4-26.5-.3 6 4.5 11.9 9.1 17.9 13.6-.8-3.6-1.5-7.1-2-10.7-.1-.6-.8-5.6-.5-3.5.2 1.9-.4-3.9-.5-4.5-.7-7.2-1.2-14.4-1.4-21.6-.5-14.6-.2-29.3.6-43.8.6-11.4 1.6-22.7 2.8-34l1.2-9.9c.6-4.8-.8 5.4-.1.5 1.4-9.6-2.4-20.4-13-22.8-8.9-2.1-21.5 2.6-23 12.9z"
   id="path18" />
      <path
   d="M-623.5 1829.1c0-.9.1-1.9.2-2.8-.2 4.9.3-1.2.8-3.1.5-2 1-4 1.6-5.9.5-1.6 1-3.1 1.6-4.6.3-.9.7-1.9 1.1-2.8 1.6-4.1-1 2.2-.4.9 4.5-9.4 9.4-18.4 15.4-27 .8-1.1 1.5-2.2 2.3-3.2s4.2-6.2.9-1.2c1.9-2.9 4.4-5.6 6.7-8.2 5.2-6.1 10.7-11.8 16.4-17.4 6.5-6.3 13.2-12.3 20.2-18 2.1-1.7 4.1-3.4 6.2-5 .9-.7 1.7-1.4 2.6-2-2.7 2.1.2-.2.9-.7 4.5-3.4 9-6.6 13.6-9.8 25.1-17.5 51.9-32.6 79.4-46.2 9-4.5 11.5-17.2 6.7-25.4-5.4-9.2-16.4-11.1-25.4-6.7-45.4 22.5-89.8 49.3-126.8 84.3-20 18.9-38.8 41.1-50.2 66.3-5.4 12-10.6 25.3-10.6 38.7 0 9.7 8.5 19 18.6 18.6 9.7-.7 18.2-8.4 18.2-18.8z"
   id="path19" />
      <path
   d="M-281.7 1918.2c-7.7 37.4-12.8 75.4-17.2 113.3-9 76.8-13.2 154.7-7.2 231.9 3.5 44.9 10.2 90.2 24.4 133.1 2.8-7 5.7-14 8.5-21-47.1 22.2-93.5 48.5-134.9 80-15.9 12.1-31.4 24.8-44.6 39.9 7.5-1 15-1.9 22.5-2.9-4.4-2.9-8.7-5.9-13-8.9-4.6-3.3-9.2-6.6-13.8-10-2.7-2-5.3-3.9-8-5.9-1.5-1.1-3-2.3-4.5-3.4-.7-.5-1.4-1-2-1.6-1.2-.9 2.9 2.2-.4-.3-27.9-21.8-55.2-45.1-78.2-72.1-1.6-1.9-3.1-3.7-4.7-5.6-.8-.9-1.5-1.9-2.2-2.8 1.5 1.9 1.1 1.5-.1-.2-2.7-3.7-5.3-7.4-7.8-11.2-2.3-3.6-4.5-7.3-6.4-11.1-.9-1.8-1.7-3.7-2.6-5.4-1-1.9 1.5 1.7.6 1.5-.6-.1-1.7-4.6-1.9-5.1-3.2-9.5-12.8-15.7-22.8-13-9.3 2.5-16.2 13.3-13 22.8 11.8 35.2 39.4 63.9 65.9 88.7 24.7 23 51.4 44 78.8 63.7 5.7 4.1 11.4 8.1 17.2 12 6.4 4.2 17.4 3 22.5-2.9 10.8-12.5 23.3-23.4 36.3-33.5-3 2.3 2-1.5 2.7-2 1.8-1.3 3.5-2.6 5.3-3.9 3.6-2.6 7.2-5.2 10.8-7.7 7.5-5.2 15.2-10.2 22.9-15.1 25.2-15.9 51.4-30.5 78-44 5.3-2.7 10.6-5.4 16-7.9 7-3.3 10.9-13.7 8.5-21-5.9-18-10.6-36.5-14.2-55.1-1.9-9.7-3.5-19.4-4.8-29.2-.1-.5-.6-4.1-.2-1.8.3 2.3-.2-1.3-.2-1.8-.3-2.6-.6-5.1-.9-7.7-.6-5.2-1.1-10.3-1.6-15.5-3.8-40.1-4.4-80.6-3.2-120.9 1.1-36.9 3.9-73.8 7.9-110.5.9-8.1 1.8-16.1 2.8-24.1.5-3.7.9-7.3 1.4-11 .2-1.3 0-3.9.7-5-.1.2-.6 4.6-.2 1.3.2-1.2.3-2.4.5-3.6 1.7-12.1 3.5-24.2 5.4-36.2 2-12.5 4.1-25 6.7-37.4 1.9-9.5-2.7-20.5-13-22.8-9.2-2.1-20.6 2.8-22.7 12.9z"
   id="path20" />
      <path
   d="M-458.1 2508.5c1.8 17.6 7.3 34.9 13.5 51.4 17.3 46.2 42.3 89.2 71.2 129.1 22.1 30.5 46.4 59.5 72.2 86.9 15 16 30.6 31.5 46.6 46.5 8.6 8 17.3 16 26.1 23.8 6.1 5.4 12 11.6 19.7 14.6 37.4 14.5 76.7 25.4 115.5 35.4 69.2 17.9 141.4 32 213.1 30.7 8.3-.2 16.6-.6 24.8-1.3 12.9-1.1 20-10.9 17.9-23.5-4.5-27.1-9.2-54.1-13.6-81.2-3.8-23.6-7.5-47.2-10.9-70.9-.9-5.9-1.7-11.9-2.5-17.8-.4-2.9-.8-5.9-1.2-8.8-.1-.7-.7-5-.3-2.2.4 2.7-.3-2-.4-2.8-1.5-11-2.8-22.1-4.1-33.1-1.9-17.5-4.3-35.4-3.5-53 .3-6-3.6-13.4-9.2-16-37.5-17.8-74.5-36.8-111.1-56.4-66.5-35.5-133.1-72.9-193.4-118.3-1.8-1.3-3.5-2.7-5.3-4-2.1-1.6 3.6 2.9.4.3-.9-.7-1.9-1.5-2.8-2.2-3.6-2.9-7.2-5.8-10.7-8.7-6.4-5.3-12.6-10.9-18.6-16.6-5.2-5.1-10.3-10.3-14.9-15.9-.5-.5-.9-1.1-1.3-1.6-2.5-3-.6.6.6.8-.7-.1-2.4-3.3-2.8-3.9-1.7-2.4-3.3-4.9-4.7-7.5-4.9-8.7-16.8-11.7-25.4-6.7-8.8 5.1-11.6 16.6-6.7 25.4 13.8 24.4 36.6 43.8 58.3 61 29.9 23.6 61.7 44.8 94.1 64.7 60 36.9 122.2 70.3 185.2 101.8 13.4 6.7 26.8 13.4 40.4 19.8-3.1-5.3-6.1-10.7-9.2-16-.7 15.1 1.1 30.5 2.7 45.5 2.5 23.8 5.7 47.5 9.1 71.1 6.3 44.1 13.3 88.2 20.7 132.1 1.7 10.3 3.6 20.6 5.3 31 6-7.8 11.9-15.7 17.9-23.5-29.4 2.5-59.1 1.3-88.4-1.6-3.9-.4-7.7-.8-11.6-1.3-1.8-.2-3.6-.4-5.3-.6l-2.7-.3c-.3 0-3.9-.5-2-.3 2 .3-.9-.1-1.1-.2-.9-.1-1.8-.2-2.7-.4-2.1-.3-4.1-.6-6.2-.9-3.8-.6-7.7-1.2-11.5-1.8-15.1-2.5-30.2-5.4-45.2-8.6-47.5-10.1-94.4-23.1-140.4-38.4-9-3-18.1-6-27-9.4 2.7 1.6 5.5 3.2 8.2 4.8-37.6-32.6-73.4-67.2-106.2-104.7-7.1-8.1-14-16.2-20.7-24.5-2.9-3.6-5.8-7.2-8.7-10.9-.7-.9-4.4-5.6-2.3-2.9-1.7-2.2-3.3-4.4-5-6.6-10.3-13.8-20.2-27.9-29.5-42.4-14.4-22.6-27.5-46.1-38.4-70.6-.5-1.1-1-2.3-1.5-3.4-2.1-4.7.9 2.2-.1-.2-.9-2.3-1.9-4.5-2.8-6.8-1.7-4.3-3.3-8.5-4.8-12.9-2.3-6.6-4.5-13.4-6.3-20.2-1.3-4.8-2.5-9.6-3.4-14.5-.2-1.3-.4-2.6-.7-3.9-.5-2.8.8 6.5.5 3.5-1-9.6-7.8-19-18.6-18.6-9 .5-19.4 8.3-18.3 18.6z"
   id="path21" />
      <path
   d="M157.7 1326.1c-7.3 5.7-3.2 2.5-1.5 1.2 2-1.5 4.1-3 6.2-4.5 7.6-5.5 15.3-10.9 23.1-16.1 26.4-17.8 53.7-34.2 81.6-49.5 38.7-21.1 76.6-38.8 115.8-53.4 22.3-8.3 45-15.6 68-21.7 12.2-3.2 24.5-6.1 36.9-8.6 5.6-1.1 11.2-2.1 16.8-3.1 3-.5 5.9-1 8.9-1.4 1.3-.2 2.6-.4 4-.6-.1 0 5.9-.8 3-.4 5.9-.8 12.2-.8 18-2 4.9-1-1.2-1.3-.6-.9.9.6 2.2.9 3.2 1.3.9.4 1.8.7 2.7 1.1 4.1 1.7-5.2-2.2-.6-.3 3.1 1.3 6.1 2.6 9.2 3.9 19.8 8.5 39.5 17.3 59 26.4 59 27.4 117.3 56.8 173.1 90.3 14.6 8.8 28.9 17.8 43 27.3 6.6 4.4 13.1 8.9 19.5 13.6 3.1 2.2 6.2 4.5 9.3 6.8 1.3 1 2.7 2 4 3 3.3 2.5-2.4-1.9-.3-.2 1 .8 1.9 1.5 2.9 2.3 11 8.7 21.7 17.9 31.6 27.8 4.5 4.5 8.9 9.1 13 14 .9 1.1 1.9 2.2 2.8 3.4l1.2 1.5c1.9 2.3-1.2-1.4-1.2-1.5-.1 1.4 4.4 6.1 5.3 7.4 2.8 4.2 5.4 8.6 7.6 13.2-.8-3.1-1.7-6.2-2.5-9.4.9 39.7 1.2 79.5 1.2 119.2 0 69.5-.4 139.3-5.6 208.7-.6 8.1-1.3 16.3-2.2 24.4-.4 3.5-.8 7-1.2 10.6-.2 1.6-1.4 8.4-.2 1.4-.3 1.4-.4 2.9-.6 4.3-1.5 10.1-3.2 20.5-6.8 30 2.8-3.7 5.7-7.4 8.5-11.1-39.4 21.3-79.3 41.8-119.4 61.8-35.9 17.9-72 35.5-108.4 52.2-18.1 8.3-36.2 16.3-54.5 24.1 5.2-2.2-1.4.6-2.4 1-2.3.9-4.5 1.9-6.8 2.8-4.4 1.8-8.8 3.6-13.3 5.4-8 3.2-16.1 6.3-24.2 9.3-15.1 5.5-30.5 10.7-46.1 14.6-3.2.8-6.4 1.5-9.7 2.1-1.4.3-2.7.5-4.1.7-.7.1-1.3.2-2 .3-4.1.7 4.7-.4 1.8-.2-4.6.3-9.1.8-13.8.3 3.1.8 6.2 1.7 9.4 2.5-41.4-23.1-82.4-47-123.1-71.2-70.6-42-141.4-84.8-207.4-133.7-3.9-2.9-8-5.6-11.7-8.8 4.8 4.2-1.3-1-2.5-2-1.8-1.4-3.5-2.8-5.2-4.2-6-4.9-12-9.9-17.7-15.2-4.6-4.3-9.2-8.7-13.4-13.4-.9-1-1.8-2.1-2.7-3.1-3.1-3.6 2.8 4.1.3.3-1.2-1.8-2.4-3.6-3.4-5.5-4.7-8.9-17-11.6-25.4-6.7-9 5.2-11.4 16.5-6.7 25.4 5.4 10.3 14.3 19.2 22.7 27.1 12.6 11.9 26.4 22.5 40.2 33 34.2 25.9 70.2 49.5 106.4 72.6 38.5 24.5 77.4 48.2 116.7 71.5 29.6 17.5 59.3 34.8 89.2 51.8 7.3 4.1 14.6 8.3 21.9 12.4 7.7 4.3 16.1 5.1 24.8 4.2 33.6-3.5 66.2-16.5 97.4-28.9 43.3-17.3 85.7-36.6 127.7-56.7 38.9-18.6 77.5-37.9 115.8-57.6 21.8-11.2 43.5-22.6 65.1-34.1 1.1-.6 2.4-1.2 3.5-1.9 7.8-4.8 10.1-14.8 12.1-23.2 3.7-16.1 5.5-32.7 7.1-49.1 4.2-43.6 5.5-87.6 6.4-131.4.9-45 1-89.9.7-134.9-.2-25.9-.5-51.8-1-77.7-.3-12.3-8-23.2-15.2-32.7-12.1-16-26.2-30.1-41.4-43.1-36.7-31.1-77.6-57.1-119.2-81.1-41.2-23.7-83.6-45.4-126.6-65.9-29.3-14-58.9-27.5-88.8-40.2-6.3-2.7-12.5-6-19-8-6.2-1.9-14.7.2-21 .9-10 1.2-19.9 2.5-29.8 4.2-17.4 2.9-34.7 6.6-51.8 11-64.4 16.6-126.4 42.6-185.1 73.7-38 20.1-74.9 42.4-109.9 67.2-6.2 4.4-12.4 9-18.5 13.6-7.9 6.1-6.5 19.8 0 26.3 7.5 7.6 18 5.9 25.9-.2z"
   id="path22" />
      <path
   d="M561.1 1147.1c.6-5.7 1.3-11.4 2-17l2.4-19.2.6-4.8c.3-2.6-.7 5-.1 1.1.1-.7.2-1.5.3-2.2l1.8-12.9c4.8-33.7 10-67.8 19-100.6 1-3.5 2-7 3.1-10.5.4-1.3 4-8.6 3.5-9.6.1.1-2.1 4.6-1 2.4.3-.6.6-1.3.9-1.9.6-1.2 1.2-2.3 1.8-3.4.9-1.5 3.2-5.9-.8.6.4-.6 1-1.2 1.6-1.7 7.1-7.1 7.1-19.2 0-26.3-7.1-7.1-19.1-7.1-26.3 0-8.7 8.7-12.9 21.3-16.4 32.8-4.8 15.4-8.1 31.3-11.2 47.2-6.6 34.3-11.5 69-15.8 103.7-.9 7.5-1.8 14.9-2.6 22.4-1 9.7 9.3 19 18.6 18.6 11-.6 17.5-8.3 18.6-18.7z"
   id="path23" />
      <path
   d="M948.6 1413.1c4.8-2.3 9.7-4.5 14.6-6.7 2.4-1.1 4.9-2.2 7.3-3.2 1.4-.6 2.8-1.2 4.1-1.8.6-.3 1.3-.5 1.9-.8 3.4-1.5-3.7 1.5-.4.2 7.3-3 14.6-6 22-8.9 36.4-14.2 73.9-26.7 112.3-34 5.2-1 10.4-1.8 15.7-2.6 3.6-.5.4-.1-.3 0 1.5-.2 3.1-.4 4.6-.6 2.8-.3 5.5-.6 8.3-.8 10.2-.8 20.4-1 30.6-.2 12.5 1 20.5-12.6 17.9-23.5-3.8-16.2-8.3-32.4-13.3-48.3-4.1-13.2-8.7-26.3-14.1-39-4.2-9.8-9-20.1-16.7-27.5-7.2-6.9-19.1-7.2-26.3 0-7 7-7.3 19.3 0 26.3.7.7 1.3 1.5 2 2.1 2.1 1.9-2.5-3.8-.9-1.2 1.1 1.9 2.4 3.7 3.5 5.6 1.2 2.2 2.4 4.5 3.5 6.8.5 1.1 1 2.2 1.5 3.2.3.7.7 1.5 1 2.2-1.1-2.5-1.2-2.8-.4-.9 4.5 11.5 8.5 23.1 12.1 34.8 4.6 15.1 8.8 30.3 12.5 45.7 6-7.8 11.9-15.7 17.9-23.5-40.3-3.3-81.8 6.8-120.1 18.3-34.3 10.3-67.7 23.2-100.5 37.5-6.4 2.8-12.7 5.6-19 8.6-9 4.4-11.4 17.2-6.7 25.4 5.4 9.4 16.3 11.2 25.4 6.8z"
   id="path24" />
      <path
   d="M1160 1351.2c14.1 9.9 28 20.1 41.8 30.5 2.8 2.1 5.6 4.3 8.4 6.4l2.7 2.1c2.1 1.6-2.6-2-.5-.4 1.7 1.3 3.3 2.6 5 3.9 6.6 5.2 13.2 10.4 19.7 15.8 12.5 10.2 24.8 20.8 36.6 31.9 5.5 5.3 10.9 10.7 16 16.4 1.2 1.3 2.3 2.7 3.5 4 .4.5.9 1 1.3 1.6 2.4 2.9-.7.1-.5-.7-.2 1 4.5 6.6 5.2 7.8 5.1 8.6 16.7 11.7 25.4 6.7 8.7-5.1 11.8-16.7 6.7-25.4-14.9-25.3-39.9-45.3-62.2-63.9-24.1-20-49.1-39-74.5-57.4-5.3-3.8-10.5-7.6-15.8-11.3-8.2-5.7-20.6-1.5-25.4 6.7-5.4 9.2-1.6 19.6 6.6 25.3z"
   id="path25" />
      <path
   d="M907.3 1809.9c25.8 33.5 51.1 67.5 76 101.7 42.6 58.4 85.3 117.4 121.7 179.9 7.3 12.5 14.3 25.2 20.2 38.4 2.3 5.2-1.2-3.2.2.4.5 1.2 1 2.4 1.4 3.7.8 2.2 1.6 4.4 2.3 6.7.6 1.9.9 3.8 1.4 5.8 1 4-.2-5.2-.3-2 0 .9.1 1.7.1 2.6-.2 9.3 8.7 19.6 18.6 18.6 29.2-3.1 58.4-7.9 87.2-13.7 48.2-9.6 98.8-21.8 141.7-46.6 9.5-5.5 18.7-11.9 26.8-19.5 6-5.6 13.3-13 15.5-21.1 2.4-9.1 3.3-19 4.9-28.3 7.4-43.7 14.5-87.4 21-131.2 3.5-23.6 6.8-47.3 9.5-71.1 1.6-14.5 3.7-29.4 3.1-44.1-.1-3.5-.6-7-1.2-10.5-1.9-9.8-13.7-15.5-22.8-13-10.3 2.8-14.9 13-13 22.8.8 3.8-.4-6-.2-1.8 0 1.1.1 2.3.2 3.4.1 2.6 0 5.3-.1 7.9-.3 7.4-1 14.9-1.7 22.3-.9 9.6-2.1 19.2-3.3 28.7-.7 5.3-1.3 10.6-2.1 15.8.5-3.5.3-2-.1.5-.2 1.2-.3 2.5-.5 3.7l-1.2 8.7c-6.3 44.7-13.5 89.3-21 133.8-2.1 12.7-4.3 25.3-6.5 38-.2 1.2-.6 2.6-.7 3.8-.1 3.3 2.6-5.6 0-1-.2.4 2.9-3.4.4-.6l-1.8 2.1c-1.6 1.7-3.3 3.4-5 5-1.6 1.5-3.2 2.8-4.9 4.2-2.4 2.1 3.2-2.3.5-.4-1.1.8-2.3 1.7-3.4 2.5-8.6 6-17.9 11-27.4 15.5-2.4 1.1-4.9 2.2-7.3 3.3-3 1.4 3.6-1.4-.8.3-1.4.6-2.8 1.1-4.2 1.7-5.7 2.3-11.4 4.4-17.2 6.3-23.1 7.9-46.8 14.1-70.7 19.3-20.7 4.5-41.6 8.3-62.6 11.6-3.9.6-7.9 1.2-11.8 1.7-1.8.3-3.6.5-5.3.7-3.1.4 1.1-.2 2.1-.3-.9.1-1.7.2-2.6.3-4 .5-8 .8-11.9 1.5-.5.1-1 .1-1.6.2l18.6 18.6c.2-9-2.8-18-6.1-26.3-5.1-12.5-11.1-24.6-17.7-36.4-16.3-29.4-34.7-57.6-53.5-85.4-39.2-58.2-80.6-114.9-122.8-170.9-9.3-12.3-18.6-24.7-28-36.9-6.1-7.9-16-12.2-25.4-6.7-7.9 5-12.9 17.9-6.7 25.8z"
   id="path26" />
      <path
   d="M1384.2 2065.4c1 6.3 1.8 12.7 2.7 19.1.2 1.5.4 3 .6 4.6.2 1.6.9 7.8.1 1 .4 3.9 1 7.8 1.5 11.7 1.1 8.8 2.2 17.7 3.3 26.5 4.7 39.8 9 79.9 9.8 120 .2 9.2.2 18.4-.4 27.6-.1 2.2-.3 4.4-.5 6.5-.2 2.3-2.1 7.1 0 1-1.1 3.2-1.2 6.9-2.2 10.2-2.8 9.3 3.4 20.7 13 22.8 10 2.3 19.8-3 22.8-13 4.5-14.9 4.6-31.4 4.6-46.8-.1-19.8-1.3-39.6-2.9-59.4-3.2-39.2-7.9-78.2-13.2-117.1-1.1-8.2-2.2-16.3-3.5-24.5-1.5-9.9-14-15.4-22.8-13-10.6 2.9-14.4 12.9-12.9 22.8z"
   id="path27" />
      <path
   d="M1131 2142.2c-2.1 7.6-4.6 15-7.1 22.4-3 8.8-6.2 17.5-9.5 26.1-2 5.3-4.1 10.6-6.3 15.9-1.1 2.8-2.3 5.6-3.5 8.4-1.8 4.2 1.4-3.3-.4 1-.7 1.7-1.4 3.3-2.2 5-28.6 65.9-64.5 128.8-106.9 186.8-14.1 19.2-28.3 37-44.9 56-17.9 20.5-36.7 40.1-56.4 58.8 4.4-1.8 8.8-3.6 13.1-5.4-11-.9-22-2-33-3.2-12-1.3-23.9-2.6-35.8-4-7.1-.9-14.3-1.7-21.4-2.7l-11.1-1.5c-1.1-.1-3.6-.4 1.3.2-1-.1-2-.3-3-.4-2.2-.3-4.5-.6-6.7-.9-68.8-9.6-138.3-20.9-204.6-42.1-8.2-2.6-16.3-5.4-24.3-8.5-1.7-.7-3.4-1.3-5.1-2-1.4-.6-8.5-2.8-2.5-1-3.5-1.1-7-3.1-10.3-4.7-6-2.9-11.9-6-17.6-9.6-2.6-1.6-5.1-3.4-7.6-5.2s1.5.2 1.6 1.2c0-.2-1.7-1.3-1.8-1.5-1.1-1-2.3-1.9-3.4-2.9 1.8 4.4 3.6 8.8 5.4 13.1.1-15.4.2-30.8.2-46.2l.6-111c.2-44.6.5-89.1.7-133.7l.6-116.1c.1-18.8.8-37.7.3-56.4v-.8c.1-9.7-8.6-19-18.6-18.6-10.1.5-18.5 8.2-18.6 18.6-.1 20.7-.2 41.3-.3 62-.3 47.1-.5 94.1-.8 141.2-.3 51.1-.5 102.3-.8 153.4-.2 32.9-.4 65.7-.5 98.6 0 2.7-.1 5.5 0 8.3.4 11.7 9 17.5 17.5 23.7 18.3 13.2 40.1 21.7 61.2 29.2 53.7 18.9 110.4 29.7 166.4 38.9 48.2 7.9 96.7 14.2 145.3 19.2 8.6.9 17.7 2.6 26.4 2.5 10.4-.1 17.5-9.3 24.4-16.1 8.2-8.1 16.3-16.3 24.1-24.7 15.4-16.4 30.1-33.4 44.2-51 47.5-59.2 88.1-123.7 120.7-192.2 17.4-36.5 33.3-74.2 45-113 .5-1.7 1.1-3.5 1.5-5.3 2.6-9.4-3.2-20.6-13-22.8-9.5-2.2-19.8 3-22.5 13z"
   id="path28" />
      <path
   d="M499.1 2425.7c-36.6 24.4-74.1 47.6-111.9 70.1-33.7 20.1-67.8 39.5-102.6 57.8-17.3 9.1-34.7 17.8-52.4 26.1-8.5 4-17.1 7.8-25.7 11.5-1 .4-4.9 2 .1 0-.7.3-1.4.6-2.2.9-2.1.9-4.3 1.8-6.4 2.6-3.8 1.5-7.7 3-11.5 4.5-15.5 5.9-31.4 11.2-47.7 14.4-1.6.3-3.2.6-4.9.9-.8.1-1.6.2-2.4.4-3.1.6 5.6-.6 1.1-.1-2.9.3-5.8.6-8.7.7-2.8.1-5.7 0-8.5-.2-5-.3 4.2.9.8.1-1.3-.3-2.6-.5-3.8-.8-6.4-1.7-13.3.1-18.1 4.8-5.2 5.2-5.7 11.2-4.8 18.1l12.6 93.3c6.7 49.2 13.3 98.5 20 147.7 1.5 11 2.2 22.4 4.5 33.2 1.7 8.1 8.4 11.7 15.2 14.8 9.2 4.3 18.5 8.2 27.9 12.1 17.5 7.1 35.3 13.4 53.3 19.1 69.3 21.9 141.2 35.7 213.1 45.7 26.1 3.6 52.2 6.8 78.5 9.3 7 .7 14.1 1.3 21.1 1.9 4.2.3 8.2.9 12.3-.1 8.5-2.2 16.9-6.7 25-10 22-9 43.8-18.3 65.6-27.8 59-25.8 117.4-53.4 173.4-85.1 26.5-15 52.6-30.9 77-49.3 11-8.3 22.4-16.8 32.1-26.7 6.2-6.3 7-12.3 6.9-20.1l-1.2-124.5c-.4-42.5-.8-85-1.2-127.6 0-2.4 0-4.9-.1-7.3-.1-9.7-8.5-19-18.6-18.6-10 .4-18.7 8.2-18.6 18.6.3 29.8.6 59.6.8 89.3.4 47.5.9 95 1.3 142.6l.3 33c1.8-4.4 3.6-8.8 5.4-13.1-4.3 4.2-8.8 8.3-13.4 12.2-2.2 1.9-4.5 3.8-6.8 5.6-1.3 1-2.5 2-3.8 3-2.5 2 .5-.4.8-.7-1 .7-2 1.5-3 2.3-11.5 8.7-23.5 16.8-35.7 24.5-27.5 17.5-56 33.3-85 48.3-28.9 15-58.3 29.1-87.9 42.7-13.3 6.1-26.7 12.1-40.2 18-11.5 5-23.8 9.2-34.9 15 5-2.6 1.1-.4-.3.1-1.2.5-2.5 1-3.7 1.5-2.5 1-5 2.1-7.4 3.1-4.3 1.8-8.5 3.5-12.8 5.3-5.9 2.4-11.9 4.8-17.8 7.2-1.6.6-3.3 1.2-4.8 1.9-4.2 2 3.6-1.3 3.3 0 0 .2-7.9-.6-8.3-.6-18.4-1.5-36.8-3.4-55.1-5.5-6.8-.8-13.6-1.6-20.4-2.5-1.5-.2-3.1-.4-4.6-.6-1.7-.2-6.1-.8-1.8-.2-3.9-.5-7.9-1.1-11.8-1.6-16.4-2.3-32.7-4.9-49-7.6-73.8-12.6-147.8-29.6-217.2-58.3 3.5 1.4-2.4-1.1-3.2-1.4-1.8-.8-3.5-1.5-5.3-2.3-4.2-1.9-8.4-3.8-12.5-5.8 2.8 3.7 5.7 7.4 8.5 11.1-5.1-30.6-8.3-61.5-12.5-92.2-6.7-49.5-13.4-98.9-20.1-148.4-1.5-11.4-3.1-22.7-4.6-34.1l-22.8 22.8c26 6.9 55.2-1.8 79.8-10.2 35.6-12.1 69.9-28.3 103.5-45.3 65.7-33.4 129.1-71.2 191.3-110.6 13.7-8.7 27.3-17.4 40.8-26.4 8.3-5.6 11.9-16.4 6.7-25.4-4.4-8.7-16.6-12.7-25-7.1z"
   id="path29" />
      <path
   d="M900.1 2816.7c12.7 6.9 28.4 8.8 42.5 9.8 37.9 2.6 76.9-6.4 112.6-18.3 35.6-11.9 69.9-27.6 103-45.2-3.1.8-6.2 1.7-9.4 2.5 9.7 0 19-8.5 18.6-18.6-.5-10.1-8.2-18.6-18.6-18.6-8.9 0-18.6 7.4-26.4 11.4-8 4-16.1 7.9-24.3 11.7-3.8 1.8-7.7 3.5-11.6 5.2-3.8 1.7-2.9 1.3-6.7 2.9-7 2.9-14.1 5.6-21.2 8.3-22 8-44.6 14.7-67.6 18.8-2 .4-4.1.7-6.1 1-1.2.2-2.4.3-3.5.5-4.2.7 4.5-.5.4-.1-4.3.5-8.5 1-12.8 1.3-7 .5-13.9.7-20.9.4-2.8-.1-5.5-.3-8.3-.5-1.1-.1-2.3-.2-3.4-.3-.7-.1-1.3-.2-2-.2-2.9-.3 5.2.8 2.5.3-3.9-.7-7.8-1.3-11.7-2.3-2.7-.7-5.3-1.7-8-2.6s6 2.6 2.3 1l-.6-.3c-8.8-4.8-20.2-2.2-25.4 6.7-5 8.2-2.2 20.3 6.6 25.2z"
   id="path30" />
      <path
   d="M524.6 2996.2v49.5c0 9.7 8.5 19 18.6 18.6 10.1-.5 18.6-8.2 18.6-18.6v-49.5c0-9.7-8.5-19-18.6-18.6-10.1.5-18.6 8.2-18.6 18.6z"
   id="path31" />
    </g>
  </g>
  
  
  
  
  
  
  
  
  
  
  
</svg>