<?xml version="1.0" encoding="UTF-8" standalone="no"?>
<svg
   version="1.1"
   width="2000px"
   height="2000px"
   style="shape-rendering:geometricPrecision; text-rendering:geometricPrecision; image-rendering:optimizeQuality; fill-rule:evenodd; clip-rule:evenodd"
   id="svg22"
   xmlns="http://www.w3.org/2000/svg"
   xmlns:svg="http://www.w3.org/2000/svg">
   <g
      id="g1">
      <path
         style="opacity:0.955"
         fill="#003299"
         d="M 992.5,540.5 C 999.466,541.323 1005.8,543.823 1011.5,548C 1015.24,551.324 1016.91,555.491 1016.5,560.5C 1013.95,594.496 1011.45,628.496 1009,662.5C 1004.02,671.321 996.518,676.321 986.5,677.5C 981.929,677.44 978.429,675.44 976,671.5C 972.496,665.323 969.663,658.823 967.5,652C 974.108,648.696 980.775,645.363 987.5,642C 1004.28,628.058 1007.62,611.558 997.5,592.5C 990.83,587.103 983.497,586.103 975.5,589.5C 974.334,577.18 974.167,564.847 975,552.5C 978.838,545.482 984.671,541.482 992.5,540.5 Z"
         id="path1" />
   </g>
   <g
      id="g2">
      <path
         style="opacity:0.963"
         fill="#003299"
         d="M 935.5,547.5 C 940.844,547.334 946.177,547.501 951.5,548C 957.527,548.253 961.694,551.086 964,556.5C 964.5,568.162 964.667,579.829 964.5,591.5C 950.288,594.197 935.954,595.864 921.5,596.5C 920.337,585.779 920.837,575.113 923,564.5C 924.368,556.651 928.535,550.984 935.5,547.5 Z"
         id="path2" />
   </g>
   <g
      id="g3">
      <path
         style="opacity:0.972"
         fill="#003299"
         d="M 1036.5,549.5 C 1053.47,548.497 1063.81,556.164 1067.5,572.5C 1065.46,581.071 1063.96,589.737 1063,598.5C 1061.18,620.176 1059.51,641.843 1058,663.5C 1056.1,668.4 1052.6,671.567 1047.5,673C 1033.98,678.069 1024.32,674.069 1018.5,661C 1021.31,625.835 1024.14,590.668 1027,555.5C 1027.37,554.584 1027.87,553.75 1028.5,553C 1031.16,551.522 1033.82,550.355 1036.5,549.5 Z"
         id="path3" />
   </g>
   <g
      id="g4">
      <path
         style="opacity:0.97"
         fill="#003299"
         d="M 1079.5,572.5 C 1088.37,571.512 1095.87,574.179 1102,580.5C 1107.86,588.217 1111.52,596.884 1113,606.5C 1111.91,625.131 1110.91,643.798 1110,662.5C 1103.84,670.665 1095.68,673.499 1085.5,671C 1077.96,667.795 1072.8,662.295 1070,654.5C 1069.47,628.968 1071.47,603.634 1076,578.5C 1076.42,575.975 1077.59,573.975 1079.5,572.5 Z"
         id="path4" />
   </g>
   <g
      id="g5">
      <path
         style="opacity:0.992"
         fill="#003299"
         d="M 981.5,597.5 C 987.938,595.756 991.772,598.09 993,604.5C 995.482,619.035 990.315,629.868 977.5,637C 964.063,641.054 951.396,646.721 939.5,654C 934.393,660.716 930.726,668.216 928.5,676.5C 939.822,684.505 950.822,693.005 961.5,702C 979.018,718.71 987.684,739.21 987.5,763.5C 989.861,764.776 992.028,764.442 994,762.5C 996.568,741.212 991.234,722.212 978,705.5C 966.339,693.164 953.506,682.331 939.5,673C 942.272,663.727 948.272,657.561 957.5,654.5C 960.825,665.986 966.825,675.82 975.5,684C 982.277,688.266 989.277,688.599 996.5,685C 1003.17,682.153 1008.84,677.986 1013.5,672.5C 1022.29,683.928 1033.62,687.428 1047.5,683C 1055.71,680.567 1062.05,675.734 1066.5,668.5C 1079.85,683.436 1095.01,685.436 1112,674.5C 1113.74,694.145 1112.08,713.478 1107,732.5C 1096.21,762.345 1088.87,793.012 1085,824.5C 1084.09,834.479 1083.59,844.479 1083.5,854.5C 1091.32,996.917 1100.48,1139.25 1111,1281.5C 1112.62,1310.09 1108.29,1337.76 1098,1364.5C 1088.32,1389.54 1075.32,1412.54 1059,1433.5C 1050.43,1443.75 1039.93,1451.25 1027.5,1456C 1007.57,1459.88 988.903,1456.55 971.5,1446C 928.438,1419.42 903.271,1380.92 896,1330.5C 895.147,1317.46 895.48,1304.46 897,1291.5C 914.274,1227.19 925.941,1161.86 932,1095.5C 941.582,999.37 946.248,903.037 946,806.5C 945.275,804.051 944.275,801.717 943,799.5C 929.333,787.167 915.667,774.833 902,762.5C 890.587,748.937 884.254,733.271 883,715.5C 881.547,689.82 881.547,664.154 883,638.5C 883.253,624.803 889.42,614.97 901.5,609C 928.59,607.249 955.257,603.416 981.5,597.5 Z M 1051.5,697.5 C 1037.05,718.755 1027.21,742.089 1022,767.5C 1017.77,771.816 1014.6,771.15 1012.5,765.5C 1017.83,738.151 1030.83,715.484 1051.5,697.5 Z"
         id="path5" />
   </g>
   <g
      id="g6">
      <path
         style="opacity:0.976"
         fill="#003299"
         d="M 866.5,621.5 C 870.182,621.335 873.848,621.501 877.5,622C 875.113,628.262 873.613,634.762 873,641.5C 872.48,650.17 871.98,658.837 871.5,667.5C 857.359,667.678 843.359,669.178 829.5,672C 768.237,687.453 706.571,701.119 644.5,713C 641.26,720.891 637.927,728.725 634.5,736.5C 624.1,726.705 617.6,714.705 615,700.5C 615.344,686.176 615.344,671.842 615,657.5C 613.997,648.32 612.164,639.32 609.5,630.5C 609.833,630.167 610.167,629.833 610.5,629.5C 628.918,647.036 650.918,656.369 676.5,657.5C 693.312,656.482 709.979,654.315 726.5,651C 763.032,643.894 799.366,635.894 835.5,627C 845.971,625.145 856.305,623.312 866.5,621.5 Z"
         id="path6" />
   </g>
   <g
      id="g7">
      <path
         style="opacity:0.977"
         fill="#003299"
         d="M 1123.5,621.5 C 1135.93,622.109 1148.27,623.609 1160.5,626C 1198.3,635.227 1236.3,643.56 1274.5,651C 1291.02,654.315 1307.69,656.482 1324.5,657.5C 1349.72,656.554 1371.38,647.387 1389.5,630C 1390.33,629.312 1391,629.479 1391.5,630.5C 1385.3,651.15 1383.63,672.15 1386.5,693.5C 1385.47,710.559 1378.8,724.892 1366.5,736.5C 1362.7,728.96 1359.37,721.127 1356.5,713C 1292.73,700.892 1229.4,686.892 1166.5,671C 1151.58,668.117 1136.58,667.283 1121.5,668.5C 1119.69,652.673 1120.35,637.007 1123.5,621.5 Z"
         id="path7" />
   </g>
   <g
      id="g8"
      style="fill:#3fa9f5;fill-opacity:1">
      <path
         style="opacity:1;fill:#3fa9f5;fill-opacity:1"
         fill="#003299"
         d="M 618.5,735.5 C 625.09,741.917 631.924,748.251 639,754.5C 641.194,750.251 643.194,745.918 645,741.5C 689.13,854.429 732.297,967.429 774.5,1080.5C 766.944,1075.22 758.61,1071.89 749.5,1070.5C 710.305,967.418 670.805,864.418 631,761.5C 591.195,864.418 551.695,967.418 512.5,1070.5C 503.301,1072.02 494.801,1075.35 487,1080.5C 530.51,965.482 574.344,850.482 618.5,735.5 Z"
         id="path8" />
   </g>
   <g
      id="g9"
      style="fill:#3fa9f5;fill-opacity:1">
      <path
         style="opacity:1;fill:#3fa9f5;fill-opacity:1"
         fill="#003299"
         d="M 1378.5,737.5 C 1379.38,737.369 1380.04,737.702 1380.5,738.5C 1424.41,852.723 1468.41,966.889 1512.5,1081C 1506.61,1078.73 1500.61,1076.4 1494.5,1074C 1491.88,1073.18 1489.22,1072.68 1486.5,1072.5C 1447.3,969.088 1407.8,865.755 1368,762.5C 1328.2,865.755 1288.7,969.088 1249.5,1072.5C 1241.13,1073.46 1233.47,1076.29 1226.5,1081C 1225.5,1081.67 1224.5,1081.67 1223.5,1081C 1267.21,967.365 1311.21,853.865 1355.5,740.5C 1357.58,745.234 1359.74,749.901 1362,754.5C 1367.14,749.268 1372.48,744.268 1378,739.5C 1378.46,738.906 1378.63,738.239 1378.5,737.5 Z"
         id="path9" />
   </g>
   <g
      id="g10">
      <path
         style="opacity:0.986"
         fill="#003299"
         d="M 620.5,1026.5 C 660.119,1024.04 685.619,1041.71 697,1079.5C 701.914,1107.44 693.414,1130.27 671.5,1148C 642.471,1166.69 614.138,1165.69 586.5,1145C 560.326,1118.08 556.493,1088.25 575,1055.5C 586.449,1039.86 601.615,1030.2 620.5,1026.5 Z"
         id="path10" />
   </g>
   <g
      id="g11">
      <path
         style="opacity:0.986"
         fill="#003299"
         d="M 1365.5,1027.5 C 1404.53,1029.25 1427.69,1049.25 1435,1087.5C 1436.56,1127.92 1417.72,1152.75 1378.5,1162C 1342.68,1165.19 1317.85,1150.35 1304,1117.5C 1295.53,1086.85 1303.36,1061.35 1327.5,1041C 1339.02,1032.99 1351.69,1028.49 1365.5,1027.5 Z"
         id="path11" />
   </g>
   <g
      id="g12">
      <path
         style="opacity:0.982"
         fill="#003399"
         d="M 512.5,1078.5 C 527.907,1076.54 541.74,1080.21 554,1089.5C 554.388,1109.67 560.888,1127.51 573.5,1143C 563.636,1173.77 542.636,1187.1 510.5,1183C 478.651,1173.15 465.151,1151.65 470,1118.5C 476.312,1096.68 490.478,1083.35 512.5,1078.5 Z"
         id="path12" />
   </g>
   <g
      id="g13">
      <path
         style="opacity:0.981"
         fill="#003299"
         d="M 731.5,1078.5 C 753.21,1076.11 770.71,1083.45 784,1100.5C 799.21,1127.4 795.71,1151.57 773.5,1173C 753.49,1186.92 732.824,1187.92 711.5,1176C 699.878,1167.76 692.211,1156.76 688.5,1143C 701.289,1127.96 707.289,1110.63 706.5,1091C 713.836,1084.67 722.169,1080.5 731.5,1078.5 Z"
         id="path13" />
   </g>
   <g
      id="g14">
      <path
         style="opacity:0.982"
         fill="#003399"
         d="M 1289.5,1175.5 C 1287.97,1175.43 1286.97,1176.09 1286.5,1177.5C 1273.54,1185.44 1259.54,1187.6 1244.5,1184C 1214.68,1173.2 1202.18,1152.04 1207,1120.5C 1217.87,1088.47 1240.04,1075.64 1273.5,1082C 1280.31,1083.99 1286.48,1087.15 1292,1091.5C 1291.38,1111.64 1297.55,1129.47 1310.5,1145C 1307.07,1157.72 1300.07,1167.88 1289.5,1175.5 Z"
         id="path14" />
   </g>
   <g
      id="g15">
      <path
         style="opacity:0.982"
         fill="#003299"
         d="M 1466.5,1080.5 C 1489.7,1077.17 1508.2,1084.84 1522,1103.5C 1534.34,1125.75 1533.01,1147.09 1518,1167.5C 1497.75,1187.4 1474.92,1190.9 1449.5,1178C 1437.28,1170.1 1429.28,1159.1 1425.5,1145C 1438.17,1129.16 1444.84,1111 1445.5,1090.5C 1451.93,1085.78 1458.93,1082.45 1466.5,1080.5 Z"
         id="path15" />
   </g>
   <g
      id="g16">
      <path
         style="opacity:0.994"
         fill="#003299"
         d="M 607.5,1172.5 C 623.17,1172.33 638.837,1172.5 654.5,1173C 692.55,1179.38 715.05,1201.55 722,1239.5C 722.5,1278.17 722.667,1316.83 722.5,1355.5C 661.5,1355.5 600.5,1355.5 539.5,1355.5C 539.333,1316.83 539.5,1278.17 540,1239.5C 547.133,1201.53 569.633,1179.2 607.5,1172.5 Z"
         id="path16" />
   </g>
   <g
      id="g17">
      <path
         style="opacity:0.992"
         fill="#003299"
         d="M 1341.5,1174.5 C 1359.17,1174.33 1376.84,1174.5 1394.5,1175C 1422.47,1180.07 1442.3,1195.57 1454,1221.5C 1456.45,1227.63 1458.12,1233.96 1459,1240.5C 1459.5,1279.5 1459.67,1318.5 1459.5,1357.5C 1398.5,1357.5 1337.5,1357.5 1276.5,1357.5C 1276.33,1318.83 1276.5,1280.17 1277,1241.5C 1283.78,1204.89 1305.28,1182.56 1341.5,1174.5 Z"
         id="path17" />
   </g>
   <g
      id="g18">
      <path
         style="opacity:0.063"
         fill="#e2e7f3"
         d="M 1289.5,1175.5 C 1289.03,1176.91 1288.03,1177.57 1286.5,1177.5C 1286.97,1176.09 1287.97,1175.43 1289.5,1175.5 Z"
         id="path18" />
   </g>
   <g
      id="g19">
      <path
         style="opacity:0.986"
         fill="#003299"
         d="M 481.5,1198.5 C 498.833,1198.5 516.167,1198.5 533.5,1198.5C 532.512,1202.79 531.679,1207.12 531,1211.5C 530.5,1259.5 530.333,1307.5 530.5,1355.5C 511.112,1355.95 491.779,1355.45 472.5,1354C 454.479,1347.98 444.646,1335.48 443,1316.5C 442.333,1291.17 442.333,1265.83 443,1240.5C 445.976,1217.36 458.809,1203.36 481.5,1198.5 Z"
         id="path19" />
   </g>
   <g
      id="g20">
      <path
         style="opacity:0.993"
         fill="#003299"
         d="M 728.5,1198.5 C 745.837,1198.33 763.17,1198.5 780.5,1199C 799.919,1202.42 812.419,1213.59 818,1232.5C 818.667,1262.83 818.667,1293.17 818,1323.5C 813.399,1340.43 802.565,1350.93 785.5,1355C 767.503,1355.5 749.503,1355.67 731.5,1355.5C 731.667,1307.83 731.5,1260.17 731,1212.5C 730.481,1207.76 729.648,1203.1 728.5,1198.5 Z"
         id="path20" />
   </g>
   <g
      id="g21">
      <path
         style="opacity:0.992"
         fill="#003299"
         d="M 1215.5,1200.5 C 1233.83,1200.5 1252.17,1200.5 1270.5,1200.5C 1269.51,1204.79 1268.68,1209.12 1268,1213.5C 1267.5,1261.5 1267.33,1309.5 1267.5,1357.5C 1250.16,1357.67 1232.83,1357.5 1215.5,1357C 1197.33,1353.84 1185.83,1343.34 1181,1325.5C 1180.03,1293.79 1180.36,1262.12 1182,1230.5C 1187.8,1214.37 1198.97,1204.37 1215.5,1200.5 Z"
         id="path21" />
   </g>
   <g
      id="g22">
      <path
         style="opacity:0.985"
         fill="#003299"
         d="M 1465.5,1200.5 C 1483.84,1200.33 1502.17,1200.5 1520.5,1201C 1541.91,1206.08 1553.74,1219.58 1556,1241.5C 1556.67,1266.83 1556.67,1292.17 1556,1317.5C 1554.01,1339.49 1542.18,1352.66 1520.5,1357C 1503.17,1357.5 1485.84,1357.67 1468.5,1357.5C 1468.67,1309.5 1468.5,1261.5 1468,1213.5C 1467.58,1209.07 1466.75,1204.73 1465.5,1200.5 Z"
         id="path22" />
   </g>
</svg>