<?xml version="1.0" encoding="UTF-8" standalone="no"?>
<svg
   version="1.1"
   width="2000px"
   height="2000px"
   style="shape-rendering:geometricPrecision; text-rendering:geometricPrecision; image-rendering:optimizeQuality; fill-rule:evenodd; clip-rule:evenodd"
   id="svg33"
   xmlns="http://www.w3.org/2000/svg"
   xmlns:svg="http://www.w3.org/2000/svg">
   <g
      id="g1">
      <path
         style="opacity:0.948"
         fill="#003299"
         d="M 990.5,509.5 C 999.805,508.404 1006.97,511.738 1012,519.5C 1010.95,546.517 1009.28,573.517 1007,600.5C 1003.89,608.739 997.888,613.406 989,614.5C 984.168,613.174 980.835,610.174 979,605.5C 977.495,601.65 975.995,597.817 974.5,594C 982.832,591.754 989.998,587.587 996,581.5C 1002.27,573.346 1003.94,564.346 1001,554.5C 996.675,545.884 989.841,543.218 980.5,546.5C 980.334,536.828 980.5,527.161 981,517.5C 983.362,513.755 986.528,511.089 990.5,509.5 Z"
         id="path1" />
   </g>
   <g
      id="g2">
      <path
         style="opacity:0.96"
         fill="#003299"
         d="M 950.5,514.5 C 957.042,513.989 963.376,514.822 969.5,517C 970.333,517.833 971.167,518.667 972,519.5C 972.5,529.161 972.666,538.828 972.5,548.5C 961.573,550.394 950.573,551.728 939.5,552.5C 938.927,542.69 939.76,533.023 942,523.5C 943.714,519.29 946.547,516.29 950.5,514.5 Z"
         id="path2" />
   </g>
   <g
      id="g3">
      <path
         style="opacity:0.965"
         fill="#003299"
         d="M 1025.5,516.5 C 1039.56,514.267 1048.23,519.934 1051.5,533.5C 1050.01,540.782 1048.84,548.115 1048,555.5C 1046.8,571.865 1045.46,588.198 1044,604.5C 1035.69,613.346 1026.69,614.346 1017,607.5C 1014.99,604.531 1014.16,601.198 1014.5,597.5C 1016.31,572.165 1018.14,546.831 1020,521.5C 1021.11,518.887 1022.94,517.22 1025.5,516.5 Z"
         id="path3" />
   </g>
   <g
      id="g4">
      <path
         style="opacity:0.961"
         fill="#003299"
         d="M 1060.5,533.5 C 1070.39,532.693 1077.55,536.693 1082,545.5C 1083.73,549.363 1085.07,553.363 1086,557.5C 1085.81,572.503 1085.14,587.503 1084,602.5C 1079.12,609.016 1072.62,611.182 1064.5,609C 1058.51,606.341 1054.67,601.841 1053,595.5C 1052.92,576.029 1054.59,556.695 1058,537.5C 1058.48,535.867 1059.31,534.534 1060.5,533.5 Z"
         id="path4" />
   </g>
   <g
      id="g5">
      <path
         style="opacity:0.989"
         fill="#003299"
         d="M 985.5,552.5 C 992.957,551.854 996.291,555.354 995.5,563C 995.176,571.312 991.509,577.645 984.5,582C 975.003,585.61 965.669,589.61 956.5,594C 950.779,599.104 947.112,605.438 945.5,613C 957.193,621.016 968.027,630.183 978,640.5C 986.096,651.459 989.762,663.792 989,677.5C 990.679,680.699 992.679,681.033 995,678.5C 996.797,665.69 994.464,653.69 988,642.5C 978.559,629.557 967.059,618.89 953.5,610.5C 955.347,602.416 960.347,597.75 968.5,596.5C 975.382,623.461 989.382,628.128 1010.5,610.5C 1020.78,621.2 1032.11,622.367 1044.5,614C 1047.04,611.795 1049.21,609.295 1051,606.5C 1057.24,615.363 1065.74,618.529 1076.5,616C 1079.7,615.152 1082.53,613.652 1085,611.5C 1085.33,612.167 1085.67,612.833 1086,613.5C 1086.57,622.858 1086.23,632.191 1085,641.5C 1079.87,661.212 1074.54,680.879 1069,700.5C 1065.81,716.342 1063.98,732.342 1063.5,748.5C 1070.01,860.719 1077.35,972.886 1085.5,1085C 1083.28,1128.7 1067.61,1166.7 1038.5,1199C 1027.79,1209.18 1015.12,1212.85 1000.5,1210C 986.689,1206.93 974.356,1200.93 963.5,1192C 930.255,1163.34 916.088,1127.17 921,1083.5C 934.314,1033.62 943.314,982.953 948,931.5C 954.834,860.32 958.501,788.986 959,717.5C 958.508,711.351 956.008,706.184 951.5,702C 938.252,693.296 927.086,682.463 918,669.5C 912.017,658.256 909.351,646.256 910,633.5C 909.333,617.833 909.333,602.167 910,586.5C 910.422,580.145 912.089,574.145 915,568.5C 917.264,565.567 920.098,563.4 923.5,562C 936.777,560.085 950.11,558.419 963.5,557C 971.03,555.795 978.363,554.295 985.5,552.5 Z M 1036.5,630.5 C 1037.24,630.369 1037.91,630.536 1038.5,631C 1027.6,646.973 1020.1,664.473 1016,683.5C 1012.85,686.027 1010.68,685.194 1009.5,681C 1013.69,661.456 1022.69,644.623 1036.5,630.5 Z"
         id="path5" />
   </g>
   <g
      id="g6">
      <path
         style="opacity:0.969"
         fill="#003299"
         d="M 901.5,570.5 C 903.288,570.215 904.955,570.548 906.5,571.5C 902.956,582.879 901.623,594.546 902.5,606.5C 892.766,606.54 883.1,607.373 873.5,609C 825.852,621.196 777.852,631.863 729.5,641C 728.333,641.5 727.5,642.333 727,643.5C 725.124,648.963 722.957,654.297 720.5,659.5C 706.607,645.78 701.94,629.28 706.5,610C 705.915,599.492 704.249,589.158 701.5,579C 701.85,577.743 702.517,577.409 703.5,578C 717.342,591.063 733.842,597.897 753,598.5C 794.03,593.494 834.53,585.661 874.5,575C 883.649,573.53 892.649,572.03 901.5,570.5 Z"
         id="path6" />
   </g>
   <g
      id="g7">
      <path
         style="opacity:0.97"
         fill="#003299"
         d="M 1093.5,570.5 C 1102.54,571.264 1111.54,572.431 1120.5,574C 1147.39,580.474 1174.39,586.474 1201.5,592C 1216.7,595.144 1232.03,597.311 1247.5,598.5C 1266.83,597.998 1283.49,591.164 1297.5,578C 1298.17,577.333 1298.83,577.333 1299.5,578C 1294.69,593.663 1293.36,609.663 1295.5,626C 1294.78,639.267 1289.62,650.433 1280,659.5C 1277.36,653.232 1274.52,647.065 1271.5,641C 1222.85,631.737 1174.52,621.07 1126.5,609C 1115.25,607.031 1103.92,606.197 1092.5,606.5C 1091.17,594.461 1091.5,582.461 1093.5,570.5 Z"
         id="path7" />
   </g>
   <g
      id="g8"
      style="fill:#3fa9f5;fill-opacity:1">
      <path
         style="opacity:1;fill:#3fa9f5;fill-opacity:1"
         fill="#003299"
         d="M 708.5,658.5 C 713.497,663.329 718.664,667.996 724,672.5C 725.333,669.167 726.667,665.833 728,662.5C 761.691,748.571 795.191,834.738 828.5,921C 827.5,921.667 826.5,921.667 825.5,921C 819.919,917.917 814.085,915.417 808,913.5C 778,835.5 748,757.5 718,679.5C 687.451,757.142 657.284,834.976 627.5,913C 627.095,913.945 626.428,914.612 625.5,915C 619.493,916.28 613.826,918.447 608.5,921.5C 608.167,921.167 607.833,920.833 607.5,920.5C 641.175,833.138 674.841,745.805 708.5,658.5 Z"
         id="path8" />
   </g>
   <g
      id="g9"
      style="fill:#3fa9f5;fill-opacity:1">
      <path
         style="opacity:1;fill:#3fa9f5;fill-opacity:1"
         fill="#003299"
         d="M 1289.5,659.5 C 1322.45,742.503 1354.95,825.837 1387,909.5C 1388.98,914.079 1390.31,918.746 1391,923.5C 1385.13,919.734 1378.8,917.067 1372,915.5C 1342.05,836.976 1311.72,758.643 1281,680.5C 1251,758.5 1221,836.5 1191,914.5C 1184.23,916.816 1177.73,919.816 1171.5,923.5C 1203.77,836.047 1237.11,748.713 1271.5,661.5C 1273.36,665.083 1275.03,668.749 1276.5,672.5C 1281.19,668.479 1285.52,664.146 1289.5,659.5 Z"
         id="path9" />
   </g>
   <g
      id="g10">
      <path
         style="opacity:0.982"
         fill="#003299"
         d="M 710.5,880.5 C 742.59,879.281 762.09,894.281 769,925.5C 770.564,955.917 756.731,975.083 727.5,983C 696.051,986.2 675.884,972.7 667,942.5C 663.824,909.209 678.324,888.542 710.5,880.5 Z"
         id="path10" />
   </g>
   <g
      id="g11">
      <path
         style="opacity:0.981"
         fill="#003299"
         d="M 1276.5,881.5 C 1305.43,881.284 1323.93,894.951 1332,922.5C 1335.75,949.025 1325.92,968.525 1302.5,981C 1278.75,989.746 1258.25,984.913 1241,966.5C 1225.67,944.5 1225.67,922.5 1241,900.5C 1250.6,889.786 1262.43,883.453 1276.5,881.5 Z"
         id="path11" />
   </g>
   <g
      id="g12">
      <path
         style="opacity:0.976"
         fill="#003399"
         d="M 626.5,920.5 C 638.372,919.177 649.206,921.843 659,928.5C 659.182,944.216 664.015,958.216 673.5,970.5C 666.318,992.833 650.985,1003 627.5,1001C 609.451,997.284 598.284,986.451 594,968.5C 591.689,943.422 602.523,927.422 626.5,920.5 Z"
         id="path12" />
   </g>
   <g
      id="g13">
      <path
         style="opacity:0.976"
         fill="#003299"
         d="M 793.5,920.5 C 827.671,919.836 843.504,936.502 841,970.5C 833.506,992.833 818.006,1003 794.5,1001C 777.015,997.513 766.015,987.18 761.5,970C 771.272,958.357 776.105,944.857 776,929.5C 781.295,925.27 787.128,922.27 793.5,920.5 Z"
         id="path13" />
   </g>
   <g
      id="g14">
      <path
         style="opacity:0.977"
         fill="#003399"
         d="M 1191.5,921.5 C 1203.24,920.41 1213.74,923.41 1223,930.5C 1222.98,945.954 1227.82,959.621 1237.5,971.5C 1229.8,994.526 1213.8,1004.69 1189.5,1002C 1165.02,994.555 1154.52,978.055 1158,952.5C 1163.33,935.661 1174.5,925.328 1191.5,921.5 Z"
         id="path14" />
   </g>
   <g
      id="g15">
      <path
         style="opacity:0.975"
         fill="#003299"
         d="M 1358.5,921.5 C 1382.78,920.3 1398.28,931.3 1405,954.5C 1407.76,977.155 1398.59,992.655 1377.5,1001C 1351.61,1006.4 1334.28,996.728 1325.5,972C 1334.75,959.412 1339.75,945.245 1340.5,929.5C 1346.11,925.688 1352.11,923.021 1358.5,921.5 Z"
         id="path15" />
   </g>
   <g
      id="g16">
      <path
         style="opacity:0.991"
         fill="#003299"
         d="M 697.5,992.5 C 712.883,992.082 728.216,992.582 743.5,994C 767.3,1000.8 781.8,1016.3 787,1040.5C 787.5,1071.16 787.667,1101.83 787.5,1132.5C 740.833,1132.5 694.167,1132.5 647.5,1132.5C 647.333,1102.83 647.5,1073.16 648,1043.5C 653.588,1015.75 670.088,998.747 697.5,992.5 Z"
         id="path16" />
   </g>
   <g
      id="g17">
      <path
         style="opacity:0.992"
         fill="#003299"
         d="M 1262.5,993.5 C 1274.84,993.333 1287.17,993.5 1299.5,994C 1328.22,999.049 1345.38,1015.88 1351,1044.5C 1351.5,1074.16 1351.67,1103.83 1351.5,1133.5C 1304.83,1133.5 1258.17,1133.5 1211.5,1133.5C 1211.33,1102.83 1211.5,1072.16 1212,1041.5C 1218.36,1014.31 1235.19,998.305 1262.5,993.5 Z"
         id="path17" />
   </g>
   <g
      id="g18">
      <path
         style="opacity:0.974"
         fill="#003299"
         d="M 600.5,1012.5 C 614.849,1012.17 629.182,1012.5 643.5,1013.5C 642.846,1015.12 642.346,1016.78 642,1018.5C 641.5,1056.5 641.333,1094.5 641.5,1132.5C 627.163,1132.67 612.829,1132.5 598.5,1132C 584.327,1128.16 576.16,1118.99 574,1104.5C 573.054,1081.79 573.387,1059.12 575,1036.5C 579.217,1023.78 587.717,1015.78 600.5,1012.5 Z"
         id="path18" />
   </g>
   <g
      id="g19">
      <path
         style="opacity:0.989"
         fill="#003299"
         d="M 792.5,1012.5 C 806.837,1012.33 821.171,1012.5 835.5,1013C 849.109,1016.94 857.609,1025.78 861,1039.5C 861.667,1062.17 861.667,1084.83 861,1107.5C 857.5,1120.33 849.333,1128.5 836.5,1132C 822.504,1132.5 808.504,1132.67 794.5,1132.5C 794.667,1095.83 794.5,1059.17 794,1022.5C 793.39,1019.17 792.89,1015.84 792.5,1012.5 Z"
         id="path19" />
   </g>
   <g
      id="g20">
      <path
         style="opacity:0.989"
         fill="#003299"
         d="M 1165.5,1013.5 C 1179.17,1013.5 1192.83,1013.5 1206.5,1013.5C 1206.11,1016.84 1205.61,1020.17 1205,1023.5C 1204.5,1060.17 1204.33,1096.83 1204.5,1133.5C 1188.78,1133.94 1173.11,1133.44 1157.5,1132C 1148.28,1128.38 1142.11,1121.88 1139,1112.5C 1137.87,1099.89 1137.37,1087.22 1137.5,1074.5C 1137.37,1061.78 1137.87,1049.11 1139,1036.5C 1143.73,1023.93 1152.56,1016.26 1165.5,1013.5 Z"
         id="path20" />
   </g>
   <g
      id="g21">
      <path
         style="opacity:0.974"
         fill="#003299"
         d="M 1355.5,1013.5 C 1369.5,1013.33 1383.5,1013.5 1397.5,1014C 1413.58,1017.41 1422.75,1027.25 1425,1043.5C 1425.67,1064.17 1425.67,1084.83 1425,1105.5C 1422.93,1119.58 1415.09,1128.74 1401.5,1133C 1386.84,1133.5 1372.17,1133.67 1357.5,1133.5C 1357.67,1095.5 1357.5,1057.5 1357,1019.5C 1356.5,1017.48 1356,1015.48 1355.5,1013.5 Z"
         id="path21" />
   </g>
   <g
      id="g22"
      style="fill:#3fa9f5;fill-opacity:1">
      <path
         style="opacity:1;fill:#3fa9f5;fill-opacity:1"
         fill="#003299"
         d="M 1119.5,1310.5 C 1126.17,1310.5 1132.83,1310.5 1139.5,1310.5C 1139.5,1369.5 1139.5,1428.5 1139.5,1487.5C 1132.83,1487.5 1126.17,1487.5 1119.5,1487.5C 1119.5,1428.5 1119.5,1369.5 1119.5,1310.5 Z"
         id="path22" />
   </g>
   <g
      id="g23">
      <path
         style="opacity:0.962"
         fill="#003299"
         d="M 349.5,1321.5 C 383.5,1321.5 417.5,1321.5 451.5,1321.5C 451.5,1331.17 451.5,1340.83 451.5,1350.5C 440.167,1350.5 428.833,1350.5 417.5,1350.5C 417.5,1396.17 417.5,1441.83 417.5,1487.5C 406.167,1487.5 394.833,1487.5 383.5,1487.5C 383.5,1441.83 383.5,1396.17 383.5,1350.5C 372.167,1350.5 360.833,1350.5 349.5,1350.5C 349.5,1340.83 349.5,1331.17 349.5,1321.5 Z"
         id="path23" />
   </g>
   <g
      id="g24"
      style="fill:#3fa9f5;fill-opacity:1">
      <path
         style="opacity:1;fill:#3fa9f5;fill-opacity:1"
         fill="#003299"
         d="M 893.5,1321.5 C 913.207,1321.08 932.874,1321.58 952.5,1323C 971.288,1326.45 981.788,1337.62 984,1356.5C 986.045,1371.19 981.878,1383.69 971.5,1394C 967.557,1396.8 963.223,1398.8 958.5,1400C 972.626,1402.13 981.793,1409.97 986,1423.5C 990.596,1441.09 987.929,1457.42 978,1472.5C 969.723,1481.22 959.556,1486.05 947.5,1487C 929.503,1487.5 911.503,1487.67 893.5,1487.5C 893.5,1432.17 893.5,1376.83 893.5,1321.5 Z M 914.5,1339.5 C 924.172,1339.33 933.839,1339.5 943.5,1340C 956.89,1342.59 963.223,1350.75 962.5,1364.5C 963.585,1378.88 957.251,1387.72 943.5,1391C 933.839,1391.5 924.172,1391.67 914.5,1391.5C 914.5,1374.17 914.5,1356.83 914.5,1339.5 Z M 914.5,1409.5 C 923.839,1409.33 933.173,1409.5 942.5,1410C 958.603,1412.61 966.603,1422.11 966.5,1438.5C 967.387,1456.43 959.053,1466.6 941.5,1469C 932.506,1469.5 923.506,1469.67 914.5,1469.5C 914.5,1449.5 914.5,1429.5 914.5,1409.5 Z"
         id="path24" />
   </g>
   <g
      id="g25">
      <path
         style="opacity:0.965"
         fill="#003299"
         d="M 509.5,1357.5 C 538.104,1356.95 555.27,1370.61 561,1398.5C 562.326,1409.79 562.826,1421.12 562.5,1432.5C 540.164,1432.33 517.831,1432.5 495.5,1433C 496.409,1456.97 508.742,1466.97 532.5,1463C 540.64,1461.45 548.307,1458.62 555.5,1454.5C 556.665,1463.15 556.832,1471.81 556,1480.5C 539.1,1489.25 521.267,1491.75 502.5,1488C 485.202,1483.37 473.702,1472.54 468,1455.5C 462.456,1435.59 462.123,1415.59 467,1395.5C 472.407,1372.76 486.573,1360.09 509.5,1357.5 Z M 511.5,1382.5 C 520.827,1382.33 526.994,1386.66 530,1395.5C 531.067,1400.14 531.9,1404.8 532.5,1409.5C 520.5,1409.5 508.5,1409.5 496.5,1409.5C 495.594,1396.96 500.594,1387.96 511.5,1382.5 Z"
         id="path25" />
   </g>
   <g
      id="g26">
      <path
         style="opacity:0.966"
         fill="#003299"
         d="M 621.5,1357.5 C 632.533,1356.61 643.2,1358.11 653.5,1362C 665.734,1369.29 672.234,1380.12 673,1394.5C 673.5,1425.5 673.667,1456.5 673.5,1487.5C 665.472,1487.83 657.472,1487.5 649.5,1486.5C 648.152,1481.29 646.319,1476.29 644,1471.5C 634.116,1486.47 620.283,1492.3 602.5,1489C 588.188,1484.93 580.022,1475.43 578,1460.5C 576.927,1450.69 577.594,1441.02 580,1431.5C 585.715,1419.47 595.215,1412.3 608.5,1410C 619.448,1408.5 630.448,1407.67 641.5,1407.5C 641.818,1400.4 640.318,1393.73 637,1387.5C 635.421,1385.96 633.587,1384.79 631.5,1384C 619.061,1382.92 607.561,1385.76 597,1392.5C 593.374,1384.61 590.374,1376.61 588,1368.5C 598.544,1362.58 609.71,1358.91 621.5,1357.5 Z M 633.5,1428.5 C 636.167,1428.5 638.833,1428.5 641.5,1428.5C 642.354,1437.93 640.854,1446.93 637,1455.5C 630.505,1464.9 622.505,1466.56 613,1460.5C 605.912,1440.77 612.746,1430.11 633.5,1428.5 Z"
         id="path26" />
   </g>
   <g
      id="g27">
      <path
         style="opacity:0.961"
         fill="#003299"
         d="M 756.5,1357.5 C 773.12,1355.48 785.786,1361.48 794.5,1375.5C 805.168,1359.88 819.835,1354.38 838.5,1359C 849.833,1363 857,1370.83 860,1382.5C 860.912,1386.79 861.579,1391.13 862,1395.5C 862.5,1426.16 862.667,1456.83 862.5,1487.5C 851.5,1487.5 840.5,1487.5 829.5,1487.5C 829.667,1458.83 829.5,1430.16 829,1401.5C 827.328,1387.78 820.162,1383.28 807.5,1388C 802.668,1392.83 799.835,1398.66 799,1405.5C 797.593,1432.81 797.093,1460.14 797.5,1487.5C 786.833,1487.5 776.167,1487.5 765.5,1487.5C 765.667,1459.83 765.5,1432.16 765,1404.5C 764.978,1397.55 762.478,1391.72 757.5,1387C 744.544,1384.58 737.044,1390.08 735,1403.5C 733.561,1431.47 733.061,1459.47 733.5,1487.5C 722.5,1487.5 711.5,1487.5 700.5,1487.5C 700.5,1444.83 700.5,1402.17 700.5,1359.5C 709.167,1359.5 717.833,1359.5 726.5,1359.5C 727.437,1365.36 728.937,1371.03 731,1376.5C 736.206,1365.66 744.706,1359.32 756.5,1357.5 Z"
         id="path27" />
   </g>
   <g
      id="g28"
      style="fill:#3fa9f5;fill-opacity:1">
      <path
         style="opacity:1;fill:#3fa9f5;fill-opacity:1"
         fill="#003299"
         d="M 1324.5,1359.5 C 1346.7,1358.87 1359.2,1369.54 1362,1391.5C 1362.5,1423.5 1362.67,1455.5 1362.5,1487.5C 1355.83,1487.5 1349.17,1487.5 1342.5,1487.5C 1342.67,1457.5 1342.5,1427.5 1342,1397.5C 1340.14,1381.32 1331.31,1375.16 1315.5,1379C 1306.65,1382.52 1301.48,1389.02 1300,1398.5C 1299.09,1402.79 1298.42,1407.13 1298,1411.5C 1297.5,1436.83 1297.33,1462.16 1297.5,1487.5C 1290.83,1487.5 1284.17,1487.5 1277.5,1487.5C 1277.5,1445.83 1277.5,1404.17 1277.5,1362.5C 1282.84,1362.33 1288.18,1362.5 1293.5,1363C 1294.45,1367.81 1295.45,1372.64 1296.5,1377.5C 1302.98,1367.01 1312.31,1361.01 1324.5,1359.5 Z"
         id="path28" />
   </g>
   <g
      id="g29"
      style="fill:#3fa9f5;fill-opacity:1">
      <path
         style="opacity:1;fill:#3fa9f5;fill-opacity:1"
         fill="#003299"
         d="M 1431.5,1359.5 C 1442.53,1359.02 1452.87,1361.35 1462.5,1366.5C 1460.63,1371.74 1458.63,1376.9 1456.5,1382C 1428.66,1371.5 1413.16,1381 1410,1410.5C 1409.33,1420.5 1409.33,1430.5 1410,1440.5C 1415.04,1471.36 1431.71,1479.69 1460,1465.5C 1460.83,1471.53 1460.66,1477.53 1459.5,1483.5C 1417.11,1498.22 1393.61,1483.22 1389,1438.5C 1386.61,1418.28 1389.61,1398.95 1398,1380.5C 1405.64,1367.77 1416.81,1360.77 1431.5,1359.5 Z"
         id="path29" />
   </g>
   <g
      id="g30"
      style="fill:#3fa9f5;fill-opacity:1">
      <path
         style="opacity:1;fill:#3fa9f5;fill-opacity:1"
         fill="#003299"
         d="M 1635.5,1359.5 C 1640.09,1359.8 1644.59,1360.47 1649,1361.5C 1649.12,1368.2 1648.62,1374.86 1647.5,1381.5C 1630.88,1377.4 1619.71,1383.4 1614,1399.5C 1612.69,1403.42 1611.69,1407.42 1611,1411.5C 1610.5,1436.83 1610.33,1462.16 1610.5,1487.5C 1603.83,1487.5 1597.17,1487.5 1590.5,1487.5C 1590.5,1445.83 1590.5,1404.17 1590.5,1362.5C 1595.83,1362.5 1601.17,1362.5 1606.5,1362.5C 1607,1369.53 1607.84,1376.53 1609,1383.5C 1614.01,1370.98 1622.84,1362.98 1635.5,1359.5 Z"
         id="path30" />
   </g>
   <g
      id="g31">
      <path
         style="opacity:1;fill:#3fa9f5;fill-opacity:1"
         fill="#003299"
         d="M 1040.5,1360.5 C 1047.84,1360.33 1055.17,1360.5 1062.5,1361C 1073.6,1362.8 1081.1,1368.97 1085,1379.5C 1086.47,1383.72 1087.47,1388.06 1088,1392.5C 1088.5,1424.16 1088.67,1455.83 1088.5,1487.5C 1083.17,1487.5 1077.83,1487.5 1072.5,1487.5C 1072.1,1481.78 1071.27,1476.11 1070,1470.5C 1059.94,1487.08 1045.44,1492.92 1026.5,1488C 1015.61,1483.4 1009.11,1475.24 1007,1463.5C 1003.46,1448.03 1006.96,1434.53 1017.5,1423C 1023.4,1418.38 1030.07,1415.38 1037.5,1414C 1047.77,1412.43 1058.1,1411.59 1068.5,1411.5C 1069.55,1401.71 1068.05,1392.38 1064,1383.5C 1060.16,1379.16 1055.33,1376.83 1049.5,1376.5C 1040.39,1377.26 1031.89,1379.92 1024,1384.5C 1023.23,1384.36 1022.56,1384.02 1022,1383.5C 1019.7,1378.94 1018.04,1374.27 1017,1369.5C 1024.45,1365.19 1032.28,1362.19 1040.5,1360.5 Z M 1052.5,1426.5 C 1057.83,1426.5 1063.17,1426.5 1068.5,1426.5C 1070.07,1439.55 1067.9,1451.88 1062,1463.5C 1052.07,1474.9 1041.4,1475.9 1030,1466.5C 1021.76,1443.96 1029.26,1430.63 1052.5,1426.5 Z"
         id="path31" />
   </g>
   <g
      id="g32"
      style="fill:#3fa9f5;fill-opacity:1">
      <path
         style="opacity:1;fill:#3fa9f5;fill-opacity:1"
         fill="#003299"
         d="M 1198.5,1360.5 C 1205.84,1360.33 1213.17,1360.5 1220.5,1361C 1230.58,1362.78 1237.74,1368.28 1242,1377.5C 1244.12,1382.98 1245.45,1388.65 1246,1394.5C 1246.5,1425.5 1246.67,1456.5 1246.5,1487.5C 1241.17,1487.5 1235.83,1487.5 1230.5,1487.5C 1230.01,1482.07 1229.01,1476.74 1227.5,1471.5C 1215.44,1488.95 1199.44,1493.79 1179.5,1486C 1168.44,1477.52 1163.1,1466.19 1163.5,1452C 1164.81,1428.68 1177.15,1415.68 1200.5,1413C 1209.14,1412.07 1217.81,1411.57 1226.5,1411.5C 1226.92,1403.36 1226.09,1395.36 1224,1387.5C 1220.68,1380.33 1215.01,1376.67 1207,1376.5C 1197.83,1377.56 1189.16,1380.22 1181,1384.5C 1177.62,1380.03 1175.62,1375.03 1175,1369.5C 1182.31,1364.89 1190.14,1361.89 1198.5,1360.5 Z M 1210.5,1426.5 C 1215.83,1426.5 1221.17,1426.5 1226.5,1426.5C 1227.68,1438.68 1225.85,1450.35 1221,1461.5C 1213.98,1472.26 1204.48,1475.43 1192.5,1471C 1185.29,1463.99 1182.79,1455.49 1185,1445.5C 1185.93,1439.8 1188.77,1435.3 1193.5,1432C 1199,1429.22 1204.67,1427.39 1210.5,1426.5 Z"
         id="path32" />
   </g>
   <g
      id="g33"
      style="fill:#3fa9f5;fill-opacity:1">
      <path
         style="opacity:1;fill:#3fa9f5;fill-opacity:1"
         fill="#003299"
         d="M 1513.5,1360.5 C 1541.38,1358.21 1557.88,1370.87 1563,1398.5C 1564.34,1408.78 1564.84,1419.12 1564.5,1429.5C 1542.5,1429.5 1520.5,1429.5 1498.5,1429.5C 1498.26,1438.46 1499.76,1447.13 1503,1455.5C 1508.13,1466.41 1516.8,1472.07 1529,1472.5C 1539.73,1471.82 1549.73,1468.82 1559,1463.5C 1559.83,1469.86 1559.66,1476.19 1558.5,1482.5C 1505.97,1499.87 1478.97,1480.7 1477.5,1425C 1477.08,1406.75 1481.58,1389.92 1491,1374.5C 1497.08,1367.39 1504.58,1362.72 1513.5,1360.5 Z M 1520.5,1376.5 C 1533.12,1377.28 1540.62,1383.95 1543,1396.5C 1543.96,1401.49 1544.8,1406.49 1545.5,1411.5C 1529.85,1412.5 1514.18,1412.83 1498.5,1412.5C 1498.25,1399.72 1502.59,1388.89 1511.5,1380C 1514.46,1378.4 1517.46,1377.23 1520.5,1376.5 Z"
         id="path33" />
   </g>
</svg>